<?xml version="1.0" encoding="UTF-8" standalone="no"?>
<!DOCTYPE svg PUBLIC "-//W3C//DTD SVG 1.1//EN"
 "http://www.w3.org/Graphics/SVG/1.1/DTD/svg11.dtd">
<!-- Generated by graphviz version 2.43.0 (0)
 -->
<!-- Title: secure::test::TestRunner::TestCase Pages: 1 -->
<svg width="287pt" height="115pt"
 viewBox="0.00 0.00 287.00 115.00" xmlns="http://www.w3.org/2000/svg" xmlns:xlink="http://www.w3.org/1999/xlink">

<svg id="main" version="1.1" xmlns="http://www.w3.org/2000/svg" xmlns:xlink="http://www.w3.org/1999/xlink" xml:space="preserve" onload="init(evt)">
<style type="text/css"><![CDATA[
.node, .edge {opacity: 0.7;}
.node.selected, .edge.selected {opacity: 1;}
.edge:hover path { stroke: red; }
.edge:hover polygon { stroke: red; fill: red; }
]]></style>
<script type="application/ecmascript" xlink:href="../../svg.min.js"/>
<svg id="graph" class="graph">
<g id="graph0" class="graph" transform="scale(1 1) rotate(0) translate(4 111)">
<title>secure::test::TestRunner::TestCase</title>
<!-- Node1 -->
<g id="Node000001" class="node">
<title>Node1</title>
<g id="a_Node000001"><a xlink:title=" ">
<polygon fill="#999999" stroke="#666666" points="185,-30 51,-30 51,0 185,0 185,-30"/>
<text text-anchor="start" x="59" y="-18" font-family="Helvetica,sans-Serif" font-size="10.00">secure::test::TestRunner</text>
<text text-anchor="middle" x="118" y="-7" font-family="Helvetica,sans-Serif" font-size="10.00">::TestCase</text>
</a>
</g>
</g>
<!-- Node2 -->
<g id="Node000002" class="node">
<title>Node2</title>
<g id="a_Node000002"><a xlink:title=" ">
<polygon fill="white" stroke="#666666" points="44,-107 0,-107 0,-88 44,-88 44,-107"/>
<text text-anchor="middle" x="22" y="-95" font-family="Helvetica,sans-Serif" font-size="10.00">string</text>
</a>
</g>
</g>
<!-- Node2&#45;&gt;Node1 -->
<g id="edge1_Node000001_Node000002" class="edge">
<title>Node2&#45;&gt;Node1</title>
<g id="a_edge1_Node000001_Node000002"><a xlink:title=" ">
<path fill="none" stroke="#9a32cd" stroke-dasharray="5,2" d="M25.53,-78.05C28.28,-68.07 33.01,-56.16 41,-48 48.4,-40.45 57.83,-34.61 67.55,-30.11"/>
<polygon fill="#9a32cd" stroke="#9a32cd" points="22.11,-77.32 23.28,-87.85 28.93,-78.89 22.11,-77.32"/>
</a>
</g>
<text text-anchor="middle" x="77.5" y="-62" font-family="Helvetica,sans-Serif" font-size="10.00" fill="grey"> aperture_code</text>
<text text-anchor="middle" x="77.5" y="-51" font-family="Helvetica,sans-Serif" font-size="10.00" fill="grey">name</text>
</g>
<!-- Node3 -->
<g id="Node000003" class="node">
<title>Node3</title>
<g id="a_Node000003"><a xlink:title=" ">
<polygon fill="white" stroke="#666666" points="143,-107 93,-107 93,-88 143,-88 143,-107"/>
<text text-anchor="middle" x="118" y="-95" font-family="Helvetica,sans-Serif" font-size="10.00">double</text>
</a>
</g>
</g>
<!-- Node3&#45;&gt;Node1 -->
<g id="edge2_Node000001_Node000003" class="edge">
<title>Node3&#45;&gt;Node1</title>
<g id="a_edge2_Node000001_Node000003"><a xlink:title=" ">
<path fill="none" stroke="#9a32cd" stroke-dasharray="5,2" d="M118,-77.6C118,-63.1 118,-43.4 118,-30.22"/>
<polygon fill="#9a32cd" stroke="#9a32cd" points="114.5,-77.89 118,-87.89 121.5,-77.89 114.5,-77.89"/>
</a>
</g>
<text text-anchor="middle" x="159" y="-62" font-family="Helvetica,sans-Serif" font-size="10.00" fill="grey"> expected_result</text>
<text text-anchor="middle" x="159" y="-51" font-family="Helvetica,sans-Serif" font-size="10.00" fill="grey">tolerance</text>
</g>
<!-- Node4 -->
<g id="Node000004" class="node">
<title>Node4</title>
<g id="a_Node000004"><a xlink:title=" ">
<polygon fill="white" stroke="#666666" points="242,-107 204,-107 204,-88 242,-88 242,-107"/>
<text text-anchor="middle" x="223" y="-95" font-family="Helvetica,sans-Serif" font-size="10.00">bool</text>
</a>
</g>
</g>
<!-- Node4&#45;&gt;Node1 -->
<g id="edge3_Node000001_Node000004" class="edge">
<title>Node4&#45;&gt;Node1</title>
<g id="a_edge3_Node000001_Node000004"><a xlink:title=" ">
<path fill="none" stroke="#9a32cd" stroke-dasharray="5,2" d="M218.32,-77.94C214.96,-67.93 209.49,-56.02 201,-48 192.91,-40.37 182.81,-34.5 172.46,-30"/>
<polygon fill="#9a32cd" stroke="#9a32cd" points="215.03,-79.16 221.18,-87.79 221.75,-77.21 215.03,-79.16"/>
</a>
</g>
<text text-anchor="middle" x="247" y="-56.5" font-family="Helvetica,sans-Serif" font-size="10.00" fill="grey"> should_error</text>
</g>
</g>
</svg>
</svg>

<style type='text/css'>
<![CDATA[
[data-mouse-over-selected='false'] { opacity: 0.7; }
[data-mouse-over-selected='true']  { opacity: 1.0; }
]]>
</style>
<script type="application/ecmascript"><![CDATA[
document.addEventListener('DOMContentLoaded', (event) => {
  highlightEdges();
  highlightAdjacentNodes();
});
]]></script>
</svg>
