<?xml version="1.0" encoding="UTF-8" standalone="no"?>
<!DOCTYPE svg PUBLIC "-//W3C//DTD SVG 1.1//EN"
 "http://www.w3.org/Graphics/SVG/1.1/DTD/svg11.dtd">
<!-- Generated by graphviz version 2.43.0 (0)
 -->
<!-- Title: aperture::SecureComputation::secure_compute Pages: 1 -->
<!--zoomable 255 -->

<svg id="main" version="1.1" xmlns="http://www.w3.org/2000/svg" xmlns:xlink="http://www.w3.org/1999/xlink" xml:space="preserve" onload="init(evt)">
<style type="text/css"><![CDATA[
.node, .edge {opacity: 0.7;}
.node.selected, .edge.selected {opacity: 1;}
.edge:hover path { stroke: red; }
.edge:hover polygon { stroke: red; fill: red; }
]]></style>

<defs>
  <circle id="rim" cx="0" cy="0" r="7"/>
  <circle id="rim2" cx="0" cy="0" r="3.5"/>
  <g id="zoomPlus">
    <use xlink:href="#rim" fill="#404040"><set attributeName="fill" to="#808080" begin="zoomplus.mouseover" end="zoomplus.mouseout"/></use>
    <path d="M-4,0h8M0,-4v8" fill="none" stroke="white" stroke-width="1.5" pointer-events="none"/>
  </g>
  <g id="zoomMin">
    <use xlink:href="#rim" fill="#404040"><set attributeName="fill" to="#808080" begin="zoomminus.mouseover" end="zoomminus.mouseout"/></use>
    <path d="M-4,0h8" fill="none" stroke="white" stroke-width="1.5" pointer-events="none"/>
  </g>
  <g id="arrowUp" transform="translate(30 24)">
    <use xlink:href="#rim"/>
    <path pointer-events="none" fill="none" stroke="white" stroke-width="1.5" d="M0,-3.0v7 M-2.5,-0.5L0,-3.0L2.5,-0.5"/>
  </g>
  <g id="arrowRight" transform="rotate(90) translate(36 -43)">
    <use xlink:href="#rim"/>
    <path pointer-events="none" fill="none" stroke="white" stroke-width="1.5" d="M0,-3.0v7 M-2.5,-0.5L0,-3.0L2.5,-0.5"/>
  </g>
  <g id="arrowDown" transform="rotate(180) translate(-30 -48)">
    <use xlink:href="#rim"/>
    <path pointer-events="none" fill="none" stroke="white" stroke-width="1.5" d="M0,-3.0v7 M-2.5,-0.5L0,-3.0L2.5,-0.5"/>
  </g>
  <g id="arrowLeft" transform="rotate(270) translate(-36 17)">
    <use xlink:href="#rim"/>
    <path pointer-events="none" fill="none" stroke="white" stroke-width="1.5" d="M0,-3.0v7 M-2.5,-0.5L0,-3.0L2.5,-0.5"/>
  </g>
  <g id="resetDef">
    <use xlink:href="#rim2" fill="#404040"><set attributeName="fill" to="#808080" begin="reset.mouseover" end="reset.mouseout"/></use>
  </g>
</defs>
<script type="application/ecmascript">
var viewWidth = 670;
var viewHeight = 255;
var sectionId = 'dynsection-13';
</script>
<script type="application/ecmascript" xlink:href="../../svg.min.js"/>
<svg id="graph" class="graph">
<g id="viewport">
<title>aperture::SecureComputation::secure_compute</title>
<!-- Node1 -->
<g id="Node000001" class="node">
<title>Node1</title>
<g id="a_Node000001"><a xlink:title=" ">
<polygon fill="#999999" stroke="#666666" points="160,-150 0,-150 0,-120 160,-120 160,-150"/>
<text text-anchor="start" x="8" y="-138" font-family="Helvetica,sans-Serif" font-size="10.00">aperture::SecureComputation</text>
<text text-anchor="middle" x="80" y="-127" font-family="Helvetica,sans-Serif" font-size="10.00">::secure_compute</text>
</a>
</g>
</g>
<!-- Node2 -->
<g id="Node000002" class="node">
<title>Node2</title>
<g id="a_Node000002"><a xlink:href="../../d2/d59/classaperture_1_1Computation.html#a36fa86f5fa7fd544b31000839fcc5f38" target="_top" xlink:title=" ">
<polygon fill="white" stroke="#666666" points="339.5,-247 212.5,-247 212.5,-217 339.5,-217 339.5,-247"/>
<text text-anchor="start" x="220.5" y="-235" font-family="Helvetica,sans-Serif" font-size="10.00">aperture::Computation</text>
<text text-anchor="middle" x="276" y="-224" font-family="Helvetica,sans-Serif" font-size="10.00">::eval</text>
</a>
</g>
</g>
<!-- Node1&#45;&gt;Node2 -->
<g id="edge1_Node000001_Node000002" class="edge">
<title>Node1&#45;&gt;Node2</title>
<g id="a_edge1_Node000001_Node000002"><a xlink:title=" ">
<path fill="none" stroke="#63b8ff" d="M111.31,-150.16C144.77,-166.88 198.74,-193.87 235.49,-212.24"/>
<polygon fill="#63b8ff" stroke="#63b8ff" points="234.39,-215.61 244.9,-216.95 237.52,-209.35 234.39,-215.61"/>
</a>
</g>
</g>
<!-- Node4 -->
<g id="Node000004" class="node">
<title>Node4</title>
<g id="a_Node000004"><a xlink:href="../../d2/d59/classaperture_1_1Computation.html#abe8394ba170e25e58bbe4778c94c649a" target="_top" xlink:title=" ">
<polygon fill="white" stroke="#666666" points="339.5,-174 212.5,-174 212.5,-144 339.5,-144 339.5,-174"/>
<text text-anchor="start" x="220.5" y="-162" font-family="Helvetica,sans-Serif" font-size="10.00">aperture::Computation</text>
<text text-anchor="middle" x="276" y="-151" font-family="Helvetica,sans-Serif" font-size="10.00">::fill</text>
</a>
</g>
</g>
<!-- Node1&#45;&gt;Node4 -->
<g id="edge3_Node000001_Node000004" class="edge">
<title>Node1&#45;&gt;Node4</title>
<g id="a_edge3_Node000001_Node000004"><a xlink:title=" ">
<path fill="none" stroke="#63b8ff" d="M160.19,-144.8C174.05,-146.51 188.41,-148.29 202.09,-149.98"/>
<polygon fill="#63b8ff" stroke="#63b8ff" points="202.04,-153.5 212.4,-151.26 202.9,-146.55 202.04,-153.5"/>
</a>
</g>
</g>
<!-- Node6 -->
<g id="Node000006" class="node">
<title>Node6</title>
<g id="a_Node000006"><a xlink:href="../../db/dd3/classaperture_1_1SecureComputation.html#a90f59528e017955ac27d1e5c8b861787" target="_top" xlink:title=" ">
<polygon fill="white" stroke="#666666" points="356,-126 196,-126 196,-96 356,-96 356,-126"/>
<text text-anchor="start" x="204" y="-114" font-family="Helvetica,sans-Serif" font-size="10.00">aperture::SecureComputation</text>
<text text-anchor="middle" x="276" y="-103" font-family="Helvetica,sans-Serif" font-size="10.00">::send_to_server</text>
</a>
</g>
</g>
<!-- Node1&#45;&gt;Node6 -->
<g id="edge7_Node000001_Node000006" class="edge">
<title>Node1&#45;&gt;Node6</title>
<g id="a_edge7_Node000001_Node000006"><a xlink:title=" ">
<path fill="none" stroke="#63b8ff" d="M160.19,-125.2C168.62,-124.16 177.24,-123.09 185.78,-122.04"/>
<polygon fill="#63b8ff" stroke="#63b8ff" points="186.26,-125.51 195.75,-120.8 185.4,-118.56 186.26,-125.51"/>
</a>
</g>
</g>
<!-- Node9 -->
<g id="Node000009" class="node">
<title>Node9</title>
<g id="a_Node000009"><a xlink:href="../../db/dd3/classaperture_1_1SecureComputation.html#a28658a988691662802dd3f134d56f89c" target="_top" xlink:title=" ">
<polygon fill="white" stroke="#666666" points="356,-54 196,-54 196,-24 356,-24 356,-54"/>
<text text-anchor="start" x="204" y="-42" font-family="Helvetica,sans-Serif" font-size="10.00">aperture::SecureComputation</text>
<text text-anchor="middle" x="276" y="-31" font-family="Helvetica,sans-Serif" font-size="10.00">::verify</text>
</a>
</g>
</g>
<!-- Node1&#45;&gt;Node9 -->
<g id="edge11_Node000001_Node000009" class="edge">
<title>Node1&#45;&gt;Node9</title>
<g id="a_edge11_Node000001_Node000009"><a xlink:title=" ">
<path fill="none" stroke="#63b8ff" d="M111.31,-120C144.67,-103.49 198.42,-76.89 235.17,-58.71"/>
<polygon fill="#63b8ff" stroke="#63b8ff" points="237.17,-61.62 244.58,-54.05 234.07,-55.35 237.17,-61.62"/>
</a>
</g>
</g>
<!-- Node3 -->
<g id="Node000003" class="node">
<title>Node3</title>
<g id="a_Node000003"><a xlink:href="../../d9/ddc/classaperture_1_1Expr.html#a209381a5628dff4606c7db5a5d0e9b0d" target="_top" xlink:title=" ">
<polygon fill="white" stroke="#666666" points="662,-235 555,-235 555,-205 662,-205 662,-235"/>
<text text-anchor="start" x="563" y="-223" font-family="Helvetica,sans-Serif" font-size="10.00">aperture::Expr::get</text>
<text text-anchor="middle" x="608.5" y="-212" font-family="Helvetica,sans-Serif" font-size="10.00">_value</text>
</a>
</g>
</g>
<!-- Node2&#45;&gt;Node3 -->
<g id="edge2_Node000002_Node000003" class="edge">
<title>Node2&#45;&gt;Node3</title>
<g id="a_edge2_Node000002_Node000003"><a xlink:title=" ">
<path fill="none" stroke="#63b8ff" d="M339.53,-235.48C388.45,-237.49 458.16,-238.78 519,-234 527.36,-233.34 536.12,-232.34 544.75,-231.17"/>
<polygon fill="#63b8ff" stroke="#63b8ff" points="545.38,-234.62 554.78,-229.73 544.38,-227.69 545.38,-234.62"/>
</a>
</g>
</g>
<!-- Node4&#45;&gt;Node3 -->
<g id="edge6_Node000004_Node000003" class="edge">
<title>Node4&#45;&gt;Node3</title>
<g id="a_edge6_Node000004_Node000003"><a xlink:title=" ">
<path fill="none" stroke="#63b8ff" d="M311.02,-174.1C333.54,-183.43 363.99,-194.76 392,-201 442.57,-212.26 501.21,-216.9 544.54,-218.79"/>
<polygon fill="#63b8ff" stroke="#63b8ff" points="544.53,-222.29 554.66,-219.19 544.8,-215.3 544.53,-222.29"/>
</a>
</g>
</g>
<!-- Node5 -->
<g id="Node000005" class="node">
<title>Node5</title>
<g id="a_Node000005"><a xlink:href="../../d2/d59/classaperture_1_1Computation.html#a0e884dcb98816f301136ae007baa670a" target="_top" xlink:title=" ">
<polygon fill="white" stroke="#666666" points="519,-174 392,-174 392,-144 519,-144 519,-174"/>
<text text-anchor="start" x="400" y="-162" font-family="Helvetica,sans-Serif" font-size="10.00">aperture::Computation</text>
<text text-anchor="middle" x="455.5" y="-151" font-family="Helvetica,sans-Serif" font-size="10.00">::fill_impl</text>
</a>
</g>
</g>
<!-- Node4&#45;&gt;Node5 -->
<g id="edge4_Node000004_Node000005" class="edge">
<title>Node4&#45;&gt;Node5</title>
<g id="a_edge4_Node000004_Node000005"><a xlink:title=" ">
<path fill="none" stroke="#63b8ff" d="M339.58,-159C353.23,-159 367.8,-159 381.8,-159"/>
<polygon fill="#63b8ff" stroke="#63b8ff" points="381.89,-162.5 391.89,-159 381.89,-155.5 381.89,-162.5"/>
</a>
</g>
</g>
<!-- Node5&#45;&gt;Node5 -->
<g id="edge5_Node000005_Node000005" class="edge">
<title>Node5&#45;&gt;Node5</title>
<g id="a_edge5_Node000005_Node000005"><a xlink:title=" ">
<path fill="none" stroke="#63b8ff" d="M428.78,-174.28C422.84,-183.41 431.75,-192 455.5,-192 469.6,-192 478.47,-188.97 482.11,-184.6"/>
<polygon fill="#63b8ff" stroke="#63b8ff" points="485.61,-184.31 482.22,-174.28 478.61,-184.24 485.61,-184.31"/>
</a>
</g>
</g>
<!-- Node7 -->
<g id="Node000007" class="node">
<title>Node7</title>
<g id="a_Node000007"><a xlink:href="../../d2/d59/classaperture_1_1Computation.html#ae6996ff6cfb2ab35ade189bc6b925d96" target="_top" xlink:title=" ">
<polygon fill="white" stroke="#666666" points="519,-126 392,-126 392,-96 519,-96 519,-126"/>
<text text-anchor="start" x="400" y="-114" font-family="Helvetica,sans-Serif" font-size="10.00">aperture::Computation</text>
<text text-anchor="middle" x="455.5" y="-103" font-family="Helvetica,sans-Serif" font-size="10.00">::partial_eval</text>
</a>
</g>
</g>
<!-- Node6&#45;&gt;Node7 -->
<g id="edge8_Node000006_Node000007" class="edge">
<title>Node6&#45;&gt;Node7</title>
<g id="a_edge8_Node000006_Node000007"><a xlink:title=" ">
<path fill="none" stroke="#63b8ff" d="M356.15,-111C364.62,-111 373.22,-111 381.62,-111"/>
<polygon fill="#63b8ff" stroke="#63b8ff" points="381.75,-114.5 391.75,-111 381.75,-107.5 381.75,-114.5"/>
</a>
</g>
</g>
<!-- Node8 -->
<g id="Node000008" class="node">
<title>Node8</title>
<g id="a_Node000008"><a xlink:href="../../d9/ddc/classaperture_1_1Expr.html#adcea8cd2ac6a29432d7e47ed5d612e05" target="_top" xlink:title=" ">
<polygon fill="white" stroke="#666666" points="506,-78 405,-78 405,-48 506,-48 506,-78"/>
<text text-anchor="start" x="413" y="-66" font-family="Helvetica,sans-Serif" font-size="10.00">aperture::Expr::to</text>
<text text-anchor="middle" x="455.5" y="-55" font-family="Helvetica,sans-Serif" font-size="10.00">_string</text>
</a>
</g>
</g>
<!-- Node6&#45;&gt;Node8 -->
<g id="edge10_Node000006_Node000008" class="edge">
<title>Node6&#45;&gt;Node8</title>
<g id="a_edge10_Node000006_Node000008"><a xlink:title=" ">
<path fill="none" stroke="#63b8ff" d="M332.68,-95.94C352.51,-90.58 374.91,-84.52 395.05,-79.08"/>
<polygon fill="#63b8ff" stroke="#63b8ff" points="395.99,-82.45 404.73,-76.46 394.17,-75.69 395.99,-82.45"/>
</a>
</g>
</g>
<!-- Node7&#45;&gt;Node3 -->
<g id="edge9_Node000007_Node000003" class="edge">
<title>Node7&#45;&gt;Node3</title>
<g id="a_edge9_Node000007_Node000003"><a xlink:title=" ">
<path fill="none" stroke="#63b8ff" d="M502.26,-126.11C508.07,-128.73 513.8,-131.7 519,-135 546.06,-152.19 571.89,-178.55 588.59,-197.35"/>
<polygon fill="#63b8ff" stroke="#63b8ff" points="585.95,-199.65 595.16,-204.9 591.23,-195.06 585.95,-199.65"/>
</a>
</g>
</g>
<!-- Node10 -->
<g id="Node000010" class="node">
<title>Node10</title>
<g id="a_Node000010"><a xlink:href="../../d9/ddc/classaperture_1_1Expr.html#ad8938d2552a03de773141889098d4ded" target="_top" xlink:title=" ">
<polygon fill="white" stroke="#666666" points="509,-30 402,-30 402,0 509,0 509,-30"/>
<text text-anchor="start" x="410" y="-18" font-family="Helvetica,sans-Serif" font-size="10.00">aperture::Expr::get</text>
<text text-anchor="middle" x="455.5" y="-7" font-family="Helvetica,sans-Serif" font-size="10.00">_holes</text>
</a>
</g>
</g>
<!-- Node9&#45;&gt;Node10 -->
<g id="edge12_Node000009_Node000010" class="edge">
<title>Node9&#45;&gt;Node10</title>
<g id="a_edge12_Node000009_Node000010"><a xlink:title=" ">
<path fill="none" stroke="#63b8ff" d="M356.15,-28.3C368.16,-26.67 380.41,-25.02 392,-23.45"/>
<polygon fill="#63b8ff" stroke="#63b8ff" points="392.56,-26.91 402,-22.1 391.62,-19.97 392.56,-26.91"/>
</a>
</g>
</g>
</g>
</svg>

<g id="navigator" transform="translate(0 0)" fill="#404254">
  <rect fill="#f2f5e9" fill-opacity="0.5" stroke="#606060" stroke-width=".5" x="0" y="0" width="60" height="60"/>
  <use id="zoomplus" xlink:href="#zoomPlus" x="17" y="9" onmousedown="handleZoom(evt,'in')"/>
  <use id="zoomminus" xlink:href="#zoomMin" x="42" y="9" onmousedown="handleZoom(evt,'out')"/>
  <use id="reset" xlink:href="#resetDef" x="30" y="36" onmousedown="handleReset()"/>
   <use id="arrowup" xlink:href="#arrowUp" x="0" y="0" onmousedown="handlePan(0,-1)"/>
  <use id="arrowright" xlink:href="#arrowRight" x="0" y="0" onmousedown="handlePan(1,0)"/>
  <use id="arrowdown" xlink:href="#arrowDown" x="0" y="0" onmousedown="handlePan(0,1)"/>
  <use id="arrowleft" xlink:href="#arrowLeft" x="0" y="0" onmousedown="handlePan(-1,0)"/>
</g>
<svg viewBox="0 0 15 15" width="100%" height="30px" preserveAspectRatio="xMaxYMin meet">
 <g id="arrow_out" transform="scale(0.3 0.3)">
  <a xlink:href="classaperture_1_1SecureComputation_a62641e690ce3262135ed09503948f6f6_cgraph_org.svg" target="_base">
   <rect id="button" ry="5" rx="5" y="6" x="6" height="38" width="38"
        fill="#f2f5e9" fill-opacity="0.5" stroke="#606060" stroke-width="1.0"/>
   <path id="arrow"
     d="M 11.500037,31.436501 C 11.940474,20.09759 22.043105,11.32322 32.158766,21.979434 L 37.068811,17.246167 C 37.068811,17.246167 37.088388,32 37.088388,32 L 22.160133,31.978069 C 22.160133,31.978069 26.997745,27.140456 26.997745,27.140456 C 18.528582,18.264221 13.291696,25.230495 11.500037,31.436501 z"
     style="fill:#404040;"/>
  </a>
 </g>
</svg>

<style type='text/css'>
<![CDATA[
[data-mouse-over-selected='false'] { opacity: 0.7; }
[data-mouse-over-selected='true']  { opacity: 1.0; }
]]>
</style>
<script type="application/ecmascript"><![CDATA[
document.addEventListener('DOMContentLoaded', (event) => {
  highlightEdges();
  highlightAdjacentNodes();
});
]]></script>
</svg>
