<?xml version="1.0" encoding="UTF-8" standalone="no"?>
<!DOCTYPE svg PUBLIC "-//W3C//DTD SVG 1.1//EN"
 "http://www.w3.org/Graphics/SVG/1.1/DTD/svg11.dtd">
<!-- Generated by graphviz version 2.43.0 (0)
 -->
<!-- Title: aperture::SecureComputation::send_to_server Pages: 1 -->
<svg width="474pt" height="94pt"
 viewBox="0.00 0.00 474.00 93.50" xmlns="http://www.w3.org/2000/svg" xmlns:xlink="http://www.w3.org/1999/xlink">
<g id="graph0" class="graph" transform="scale(1 1) rotate(0) translate(4 89.5)">
<title>aperture::SecureComputation::send_to_server</title>
<!-- Node1 -->
<g id="Node000001" class="node">
<title>Node1</title>
<g id="a_Node000001"><a xlink:title=" ">
<polygon fill="#999999" stroke="#666666" points="160,-54.5 0,-54.5 0,-24.5 160,-24.5 160,-54.5"/>
<text text-anchor="start" x="8" y="-42.5" font-family="Helvetica,sans-Serif" font-size="10.00">aperture::SecureComputation</text>
<text text-anchor="middle" x="80" y="-31.5" font-family="Helvetica,sans-Serif" font-size="10.00">::send_to_server</text>
</a>
</g>
</g>
<!-- Node2 -->
<g id="Node000002" class="node">
<title>Node2</title>
<g id="a_Node000002"><a xlink:href="../../d2/d59/classaperture_1_1Computation.html#ae6996ff6cfb2ab35ade189bc6b925d96" target="_top" xlink:title=" ">
<polygon fill="white" stroke="#666666" points="323,-81.5 196,-81.5 196,-51.5 323,-51.5 323,-81.5"/>
<text text-anchor="start" x="204" y="-69.5" font-family="Helvetica,sans-Serif" font-size="10.00">aperture::Computation</text>
<text text-anchor="middle" x="259.5" y="-58.5" font-family="Helvetica,sans-Serif" font-size="10.00">::partial_eval</text>
</a>
</g>
</g>
<!-- Node1&#45;&gt;Node2 -->
<g id="edge1_Node000001_Node000002" class="edge">
<title>Node1&#45;&gt;Node2</title>
<g id="a_edge1_Node000001_Node000002"><a xlink:title=" ">
<path fill="none" stroke="#63b8ff" d="M160.15,-51.54C168.62,-52.83 177.22,-54.14 185.62,-55.41"/>
<polygon fill="#63b8ff" stroke="#63b8ff" points="185.34,-58.91 195.75,-56.96 186.39,-51.99 185.34,-58.91"/>
</a>
</g>
</g>
<!-- Node4 -->
<g id="Node000004" class="node">
<title>Node4</title>
<g id="a_Node000004"><a xlink:href="../../d9/ddc/classaperture_1_1Expr.html#adcea8cd2ac6a29432d7e47ed5d612e05" target="_top" xlink:title=" ">
<polygon fill="white" stroke="#666666" points="310,-30.5 209,-30.5 209,-0.5 310,-0.5 310,-30.5"/>
<text text-anchor="start" x="217" y="-18.5" font-family="Helvetica,sans-Serif" font-size="10.00">aperture::Expr::to</text>
<text text-anchor="middle" x="259.5" y="-7.5" font-family="Helvetica,sans-Serif" font-size="10.00">_string</text>
</a>
</g>
</g>
<!-- Node1&#45;&gt;Node4 -->
<g id="edge3_Node000001_Node000004" class="edge">
<title>Node1&#45;&gt;Node4</title>
<g id="a_edge3_Node000001_Node000004"><a xlink:title=" ">
<path fill="none" stroke="#63b8ff" d="M160.15,-28.8C173.07,-27.05 186.28,-25.27 198.64,-23.59"/>
<polygon fill="#63b8ff" stroke="#63b8ff" points="199.36,-27.03 208.81,-22.22 198.43,-20.09 199.36,-27.03"/>
</a>
</g>
</g>
<!-- Node3 -->
<g id="Node000003" class="node">
<title>Node3</title>
<g id="a_Node000003"><a xlink:href="../../d9/ddc/classaperture_1_1Expr.html#a209381a5628dff4606c7db5a5d0e9b0d" target="_top" xlink:title=" ">
<polygon fill="white" stroke="#666666" points="466,-85.5 359,-85.5 359,-55.5 466,-55.5 466,-85.5"/>
<text text-anchor="start" x="367" y="-73.5" font-family="Helvetica,sans-Serif" font-size="10.00">aperture::Expr::get</text>
<text text-anchor="middle" x="412.5" y="-62.5" font-family="Helvetica,sans-Serif" font-size="10.00">_value</text>
</a>
</g>
</g>
<!-- Node2&#45;&gt;Node3 -->
<g id="edge2_Node000002_Node000003" class="edge">
<title>Node2&#45;&gt;Node3</title>
<g id="a_edge2_Node000002_Node000003"><a xlink:title=" ">
<path fill="none" stroke="#63b8ff" d="M323.23,-68.16C331.64,-68.38 340.26,-68.61 348.68,-68.84"/>
<polygon fill="#63b8ff" stroke="#63b8ff" points="348.71,-72.34 358.8,-69.1 348.9,-65.34 348.71,-72.34"/>
</a>
</g>
</g>
<!-- Node5 -->
<g id="Node000005" class="node">
<title>Node5</title>
<g id="a_Node000005"><a xlink:href="../../df/dc1/namespacesecure.html#a111c484fbf4d62120d4412ed93bdc686" target="_top" xlink:title=" ">
<polygon fill="white" stroke="#666666" points="461.5,-19 363.5,-19 363.5,0 461.5,0 461.5,-19"/>
<text text-anchor="middle" x="412.5" y="-7" font-family="Helvetica,sans-Serif" font-size="10.00">secure::to_string</text>
</a>
</g>
</g>
<!-- Node4&#45;&gt;Node5 -->
<g id="edge4_Node000004_Node000005" class="edge">
<title>Node4&#45;&gt;Node5</title>
<g id="a_edge4_Node000004_Node000005"><a xlink:title=" ">
<path fill="none" stroke="#63b8ff" d="M310.36,-13.52C324.12,-12.97 339.16,-12.37 353.34,-11.81"/>
<polygon fill="#63b8ff" stroke="#63b8ff" points="353.63,-15.3 363.49,-11.41 353.36,-8.31 353.63,-15.3"/>
</a>
</g>
</g>
<!-- Node5&#45;&gt;Node5 -->
<g id="edge5_Node000005_Node000005" class="edge">
<title>Node5&#45;&gt;Node5</title>
<g id="a_edge5_Node000005_Node000005"><a xlink:title=" ">
<path fill="none" stroke="#63b8ff" d="M389.07,-19.08C377.68,-27.73 385.48,-37 412.5,-37 430.23,-37 439.69,-33.01 440.87,-27.82"/>
<polygon fill="#63b8ff" stroke="#63b8ff" points="443.9,-26.06 435.93,-19.08 437.81,-29.51 443.9,-26.06"/>
</a>
</g>
</g>
</g>
</svg>
