<?xml version="1.0" encoding="UTF-8" standalone="no"?>
<!DOCTYPE svg PUBLIC "-//W3C//DTD SVG 1.1//EN"
 "http://www.w3.org/Graphics/SVG/1.1/DTD/svg11.dtd">
<!-- Generated by graphviz version 2.43.0 (0)
 -->
<!-- Title: aperture::Expr::get_value Pages: 1 -->
<!--zoomable 444 -->

<svg id="main" version="1.1" xmlns="http://www.w3.org/2000/svg" xmlns:xlink="http://www.w3.org/1999/xlink" xml:space="preserve" onload="init(evt)">
<style type="text/css"><![CDATA[
.node, .edge {opacity: 0.7;}
.node.selected, .edge.selected {opacity: 1;}
.edge:hover path { stroke: red; }
.edge:hover polygon { stroke: red; fill: red; }
]]></style>

<defs>
  <circle id="rim" cx="0" cy="0" r="7"/>
  <circle id="rim2" cx="0" cy="0" r="3.5"/>
  <g id="zoomPlus">
    <use xlink:href="#rim" fill="#404040"><set attributeName="fill" to="#808080" begin="zoomplus.mouseover" end="zoomplus.mouseout"/></use>
    <path d="M-4,0h8M0,-4v8" fill="none" stroke="white" stroke-width="1.5" pointer-events="none"/>
  </g>
  <g id="zoomMin">
    <use xlink:href="#rim" fill="#404040"><set attributeName="fill" to="#808080" begin="zoomminus.mouseover" end="zoomminus.mouseout"/></use>
    <path d="M-4,0h8" fill="none" stroke="white" stroke-width="1.5" pointer-events="none"/>
  </g>
  <g id="arrowUp" transform="translate(30 24)">
    <use xlink:href="#rim"/>
    <path pointer-events="none" fill="none" stroke="white" stroke-width="1.5" d="M0,-3.0v7 M-2.5,-0.5L0,-3.0L2.5,-0.5"/>
  </g>
  <g id="arrowRight" transform="rotate(90) translate(36 -43)">
    <use xlink:href="#rim"/>
    <path pointer-events="none" fill="none" stroke="white" stroke-width="1.5" d="M0,-3.0v7 M-2.5,-0.5L0,-3.0L2.5,-0.5"/>
  </g>
  <g id="arrowDown" transform="rotate(180) translate(-30 -48)">
    <use xlink:href="#rim"/>
    <path pointer-events="none" fill="none" stroke="white" stroke-width="1.5" d="M0,-3.0v7 M-2.5,-0.5L0,-3.0L2.5,-0.5"/>
  </g>
  <g id="arrowLeft" transform="rotate(270) translate(-36 17)">
    <use xlink:href="#rim"/>
    <path pointer-events="none" fill="none" stroke="white" stroke-width="1.5" d="M0,-3.0v7 M-2.5,-0.5L0,-3.0L2.5,-0.5"/>
  </g>
  <g id="resetDef">
    <use xlink:href="#rim2" fill="#404040"><set attributeName="fill" to="#808080" begin="reset.mouseover" end="reset.mouseout"/></use>
  </g>
</defs>
<script type="application/ecmascript">
var viewWidth = 704;
var viewHeight = 444;
var sectionId = 'dynsection-3';
</script>
<script type="application/ecmascript" xlink:href="../../svg.min.js"/>
<svg id="graph" class="graph">
<g id="viewport">
<title>aperture::Expr::get_value</title>
<!-- Node1 -->
<g id="Node000001" class="node">
<title>Node1</title>
<g id="a_Node000001"><a xlink:title=" ">
<polygon fill="#999999" stroke="#666666" points="696,-232 589,-232 589,-202 696,-202 696,-232"/>
<text text-anchor="start" x="597" y="-220" font-family="Helvetica,sans-Serif" font-size="10.00">aperture::Expr::get</text>
<text text-anchor="middle" x="642.5" y="-209" font-family="Helvetica,sans-Serif" font-size="10.00">_value</text>
</a>
</g>
</g>
<!-- Node2 -->
<g id="Node000002" class="node">
<title>Node2</title>
<g id="a_Node000002"><a xlink:href="../../d2/d59/classaperture_1_1Computation.html#a36fa86f5fa7fd544b31000839fcc5f38" target="_top" xlink:title=" ">
<polygon fill="white" stroke="#666666" points="339.5,-422 212.5,-422 212.5,-392 339.5,-392 339.5,-422"/>
<text text-anchor="start" x="220.5" y="-410" font-family="Helvetica,sans-Serif" font-size="10.00">aperture::Computation</text>
<text text-anchor="middle" x="276" y="-399" font-family="Helvetica,sans-Serif" font-size="10.00">::eval</text>
</a>
</g>
</g>
<!-- Node1&#45;&gt;Node2 -->
<g id="edge1_Node000001_Node000002" class="edge">
<title>Node1&#45;&gt;Node2</title>
<g id="a_edge1_Node000001_Node000002"><a xlink:title=" ">
<path fill="none" stroke="#63b8ff" d="M638.31,-242.23C631.4,-284.89 610.73,-370.21 553,-407 484.61,-450.59 386.01,-436.54 327.04,-422.02"/>
<polygon fill="#63b8ff" stroke="#63b8ff" points="641.8,-242.52 639.82,-232.12 634.88,-241.49 641.8,-242.52"/>
</a>
</g>
</g>
<!-- Node4 -->
<g id="Node000004" class="node">
<title>Node4</title>
<g id="a_Node000004"><a xlink:href="../../d2/d59/classaperture_1_1Computation.html#abbdb0ec8852182bd3ae633b2d8707f90" target="_top" xlink:title=" ">
<polygon fill="white" stroke="#666666" points="536,-398 409,-398 409,-368 536,-368 536,-398"/>
<text text-anchor="start" x="417" y="-386" font-family="Helvetica,sans-Serif" font-size="10.00">aperture::Computation</text>
<text text-anchor="middle" x="472.5" y="-375" font-family="Helvetica,sans-Serif" font-size="10.00">::eval_expr</text>
</a>
</g>
</g>
<!-- Node1&#45;&gt;Node4 -->
<g id="edge3_Node000001_Node000004" class="edge">
<title>Node1&#45;&gt;Node4</title>
<g id="a_edge3_Node000001_Node000004"><a xlink:title=" ">
<path fill="none" stroke="#63b8ff" d="M631.58,-241.49C618.09,-271.92 591.18,-323.53 553,-354 546,-359.59 537.81,-364.16 529.42,-367.89"/>
<polygon fill="#63b8ff" stroke="#63b8ff" points="634.91,-242.62 635.64,-232.05 628.48,-239.85 634.91,-242.62"/>
</a>
</g>
</g>
<!-- Node5 -->
<g id="Node000005" class="node">
<title>Node5</title>
<g id="a_Node000005"><a xlink:href="../../d2/d59/classaperture_1_1Computation.html#abe8394ba170e25e58bbe4778c94c649a" target="_top" xlink:title=" ">
<polygon fill="white" stroke="#666666" points="339.5,-355 212.5,-355 212.5,-325 339.5,-325 339.5,-355"/>
<text text-anchor="start" x="220.5" y="-343" font-family="Helvetica,sans-Serif" font-size="10.00">aperture::Computation</text>
<text text-anchor="middle" x="276" y="-332" font-family="Helvetica,sans-Serif" font-size="10.00">::fill</text>
</a>
</g>
</g>
<!-- Node1&#45;&gt;Node5 -->
<g id="edge4_Node000001_Node000005" class="edge">
<title>Node1&#45;&gt;Node5</title>
<g id="a_edge4_Node000001_Node000005"><a xlink:title=" ">
<path fill="none" stroke="#63b8ff" d="M628.89,-240.84C614.28,-265.71 587.72,-303.48 553,-321 486,-354.8 397.97,-354.42 339.54,-348.99"/>
<polygon fill="#63b8ff" stroke="#63b8ff" points="632.01,-242.43 633.89,-232 625.92,-238.98 632.01,-242.43"/>
</a>
</g>
</g>
<!-- Node6 -->
<g id="Node000006" class="node">
<title>Node6</title>
<g id="a_Node000006"><a xlink:href="../../d2/d59/classaperture_1_1Computation.html#a492afba43f605f5d8e26afc9eead26a4" target="_top" xlink:title=" ">
<polygon fill="white" stroke="#666666" points="536,-312 409,-312 409,-282 536,-282 536,-312"/>
<text text-anchor="start" x="417" y="-300" font-family="Helvetica,sans-Serif" font-size="10.00">aperture::Computation</text>
<text text-anchor="middle" x="472.5" y="-289" font-family="Helvetica,sans-Serif" font-size="10.00">::fill</text>
</a>
</g>
</g>
<!-- Node1&#45;&gt;Node6 -->
<g id="edge6_Node000001_Node000006" class="edge">
<title>Node1&#45;&gt;Node6</title>
<g id="a_edge6_Node000001_Node000006"><a xlink:title=" ">
<path fill="none" stroke="#63b8ff" d="M613.02,-237.82C596.2,-249.38 574.12,-263.35 553,-273 545.79,-276.3 538.01,-279.28 530.23,-281.94"/>
<polygon fill="#63b8ff" stroke="#63b8ff" points="615.12,-240.62 621.3,-232.02 611.1,-234.89 615.12,-240.62"/>
</a>
</g>
</g>
<!-- Node7 -->
<g id="Node000007" class="node">
<title>Node7</title>
<g id="a_Node000007"><a xlink:href="../../d9/dec/namespaceaperture_1_1ops.html#a21851a6150c640b738cfb729cce6fe85" target="_top" xlink:title=" ">
<polygon fill="white" stroke="#666666" points="545.5,-263.5 399.5,-263.5 399.5,-244.5 545.5,-244.5 545.5,-263.5"/>
<text text-anchor="middle" x="472.5" y="-251.5" font-family="Helvetica,sans-Serif" font-size="10.00">aperture::ops::if_then_else</text>
</a>
</g>
</g>
<!-- Node1&#45;&gt;Node7 -->
<g id="edge7_Node000001_Node000007" class="edge">
<title>Node1&#45;&gt;Node7</title>
<g id="a_edge7_Node000001_Node000007"><a xlink:title=" ">
<path fill="none" stroke="#63b8ff" d="M578.82,-230.8C558.14,-235.36 535.62,-240.32 516.72,-244.48"/>
<polygon fill="#63b8ff" stroke="#63b8ff" points="579.79,-234.17 588.8,-228.61 578.29,-227.34 579.79,-234.17"/>
</a>
</g>
</g>
<!-- Node8 -->
<g id="Node000008" class="node">
<title>Node8</title>
<g id="a_Node000008"><a xlink:href="../../d9/dec/namespaceaperture_1_1ops.html#acafc8da9a86ab6bb1832668efe30e617" target="_top" xlink:title=" ">
<polygon fill="white" stroke="#666666" points="534.5,-226.5 410.5,-226.5 410.5,-207.5 534.5,-207.5 534.5,-226.5"/>
<text text-anchor="middle" x="472.5" y="-214.5" font-family="Helvetica,sans-Serif" font-size="10.00">aperture::ops::lambda</text>
</a>
</g>
</g>
<!-- Node1&#45;&gt;Node8 -->
<g id="edge8_Node000001_Node000008" class="edge">
<title>Node1&#45;&gt;Node8</title>
<g id="a_edge8_Node000001_Node000008"><a xlink:title=" ">
<path fill="none" stroke="#63b8ff" d="M578.5,-217C564.11,-217 548.83,-217 534.52,-217"/>
<polygon fill="#63b8ff" stroke="#63b8ff" points="578.8,-220.5 588.8,-217 578.8,-213.5 578.8,-220.5"/>
</a>
</g>
</g>
<!-- Node9 -->
<g id="Node000009" class="node">
<title>Node9</title>
<g id="a_Node000009"><a xlink:href="../../d9/dec/namespaceaperture_1_1ops.html#ae8352b54472de5a2798f4e40c7faf667" target="_top" xlink:title=" ">
<polygon fill="white" stroke="#666666" points="534.5,-189.5 410.5,-189.5 410.5,-170.5 534.5,-170.5 534.5,-189.5"/>
<text text-anchor="middle" x="472.5" y="-177.5" font-family="Helvetica,sans-Serif" font-size="10.00">aperture::ops::lambda</text>
</a>
</g>
</g>
<!-- Node1&#45;&gt;Node9 -->
<g id="edge9_Node000001_Node000009" class="edge">
<title>Node1&#45;&gt;Node9</title>
<g id="a_edge9_Node000001_Node000009"><a xlink:title=" ">
<path fill="none" stroke="#63b8ff" d="M578.82,-203.2C558.14,-198.64 535.62,-193.68 516.72,-189.52"/>
<polygon fill="#63b8ff" stroke="#63b8ff" points="578.29,-206.66 588.8,-205.39 579.79,-199.83 578.29,-206.66"/>
</a>
</g>
</g>
<!-- Node10 -->
<g id="Node000010" class="node">
<title>Node10</title>
<g id="a_Node000010"><a xlink:href="../../d9/dec/namespaceaperture_1_1ops.html#aebc5ba1a632cb9f8f31814cc3731ecfa" target="_top" xlink:title=" ">
<polygon fill="white" stroke="#666666" points="522.5,-152.5 422.5,-152.5 422.5,-133.5 522.5,-133.5 522.5,-152.5"/>
<text text-anchor="middle" x="472.5" y="-140.5" font-family="Helvetica,sans-Serif" font-size="10.00">aperture::ops::let</text>
</a>
</g>
</g>
<!-- Node1&#45;&gt;Node10 -->
<g id="edge10_Node000001_Node000010" class="edge">
<title>Node1&#45;&gt;Node10</title>
<g id="a_edge10_Node000001_Node000010"><a xlink:title=" ">
<path fill="none" stroke="#63b8ff" d="M613.17,-196.12C596.4,-184.61 574.32,-170.9 553,-162 543.44,-158.01 532.87,-154.75 522.64,-152.13"/>
<polygon fill="#63b8ff" stroke="#63b8ff" points="611.23,-199.03 621.43,-201.89 615.24,-193.29 611.23,-199.03"/>
</a>
</g>
</g>
<!-- Node11 -->
<g id="Node000011" class="node">
<title>Node11</title>
<g id="a_Node000011"><a xlink:href="../../d9/dec/namespaceaperture_1_1ops.html#a062f8920ee3752e1cfa47bc050d9d1b5" target="_top" xlink:title=" ">
<polygon fill="white" stroke="#666666" points="522.5,-115.5 422.5,-115.5 422.5,-96.5 522.5,-96.5 522.5,-115.5"/>
<text text-anchor="middle" x="472.5" y="-103.5" font-family="Helvetica,sans-Serif" font-size="10.00">aperture::ops::let</text>
</a>
</g>
</g>
<!-- Node1&#45;&gt;Node11 -->
<g id="edge11_Node000001_Node000011" class="edge">
<title>Node1&#45;&gt;Node11</title>
<g id="a_edge11_Node000001_Node000011"><a xlink:title=" ">
<path fill="none" stroke="#63b8ff" d="M625.14,-193.54C609.16,-172.41 582.93,-142.12 553,-125 543.76,-119.71 533.11,-115.9 522.67,-113.14"/>
<polygon fill="#63b8ff" stroke="#63b8ff" points="622.4,-195.71 631.15,-201.69 628.03,-191.56 622.4,-195.71"/>
</a>
</g>
</g>
<!-- Node12 -->
<g id="Node000012" class="node">
<title>Node12</title>
<g id="a_Node000012"><a xlink:href="../../d9/d32/classaperture_1_1ops_1_1LambdaBuilder.html#a1990e4ec7acbe24cde26113e3021cffe" target="_top" xlink:title=" ">
<polygon fill="white" stroke="#666666" points="553,-78 392,-78 392,-48 553,-48 553,-78"/>
<text text-anchor="start" x="400" y="-66" font-family="Helvetica,sans-Serif" font-size="10.00">aperture::ops::LambdaBuilder</text>
<text text-anchor="middle" x="472.5" y="-55" font-family="Helvetica,sans-Serif" font-size="10.00">::operator[]</text>
</a>
</g>
</g>
<!-- Node1&#45;&gt;Node12 -->
<g id="edge12_Node000001_Node000012" class="edge">
<title>Node1&#45;&gt;Node12</title>
<g id="a_edge12_Node000001_Node000012"><a xlink:title=" ">
<path fill="none" stroke="#63b8ff" d="M630.8,-192.39C616.95,-163.32 590.11,-115.46 553,-88 547.77,-84.13 541.92,-80.84 535.83,-78.06"/>
<polygon fill="#63b8ff" stroke="#63b8ff" points="627.79,-194.21 635.16,-201.82 634.14,-191.27 627.79,-194.21"/>
</a>
</g>
</g>
<!-- Node13 -->
<g id="Node000013" class="node">
<title>Node13</title>
<g id="a_Node000013"><a xlink:href="../../d2/d59/classaperture_1_1Computation.html#ae6996ff6cfb2ab35ade189bc6b925d96" target="_top" xlink:title=" ">
<polygon fill="white" stroke="#666666" points="536,-30 409,-30 409,0 536,0 536,-30"/>
<text text-anchor="start" x="417" y="-18" font-family="Helvetica,sans-Serif" font-size="10.00">aperture::Computation</text>
<text text-anchor="middle" x="472.5" y="-7" font-family="Helvetica,sans-Serif" font-size="10.00">::partial_eval</text>
</a>
</g>
</g>
<!-- Node1&#45;&gt;Node13 -->
<g id="edge13_Node000001_Node000013" class="edge">
<title>Node1&#45;&gt;Node13</title>
<g id="a_edge13_Node000001_Node000013"><a xlink:title=" ">
<path fill="none" stroke="#63b8ff" d="M635.83,-191.94C625.81,-153.41 601.32,-79.81 553,-39 548.04,-34.81 542.37,-31.36 536.39,-28.5"/>
<polygon fill="#63b8ff" stroke="#63b8ff" points="632.48,-192.96 638.28,-201.82 639.27,-191.28 632.48,-192.96"/>
</a>
</g>
</g>
<!-- Node3 -->
<g id="Node000003" class="node">
<title>Node3</title>
<g id="a_Node000003"><a xlink:href="../../db/dd3/classaperture_1_1SecureComputation.html#a62641e690ce3262135ed09503948f6f6" target="_top" xlink:title=" ">
<polygon fill="white" stroke="#666666" points="160,-355 0,-355 0,-325 160,-325 160,-355"/>
<text text-anchor="start" x="8" y="-343" font-family="Helvetica,sans-Serif" font-size="10.00">aperture::SecureComputation</text>
<text text-anchor="middle" x="80" y="-332" font-family="Helvetica,sans-Serif" font-size="10.00">::secure_compute</text>
</a>
</g>
</g>
<!-- Node2&#45;&gt;Node3 -->
<g id="edge2_Node000002_Node000003" class="edge">
<title>Node2&#45;&gt;Node3</title>
<g id="a_edge2_Node000002_Node000003"><a xlink:title=" ">
<path fill="none" stroke="#63b8ff" d="M221.84,-388.64C191.33,-378.1 153.5,-365.04 124.73,-355.1"/>
<polygon fill="#63b8ff" stroke="#63b8ff" points="220.87,-392.01 231.46,-391.96 223.15,-385.39 220.87,-392.01"/>
</a>
</g>
</g>
<!-- Node5&#45;&gt;Node3 -->
<g id="edge5_Node000005_Node000003" class="edge">
<title>Node5&#45;&gt;Node3</title>
<g id="a_edge5_Node000005_Node000003"><a xlink:title=" ">
<path fill="none" stroke="#63b8ff" d="M201.99,-340C188.34,-340 174.01,-340 160.18,-340"/>
<polygon fill="#63b8ff" stroke="#63b8ff" points="202.28,-343.5 212.28,-340 202.28,-336.5 202.28,-343.5"/>
</a>
</g>
</g>
<!-- Node14 -->
<g id="Node000014" class="node">
<title>Node14</title>
<g id="a_Node000014"><a xlink:href="../../db/dd3/classaperture_1_1SecureComputation.html#a90f59528e017955ac27d1e5c8b861787" target="_top" xlink:title=" ">
<polygon fill="white" stroke="#666666" points="356,-169 196,-169 196,-139 356,-139 356,-169"/>
<text text-anchor="start" x="204" y="-157" font-family="Helvetica,sans-Serif" font-size="10.00">aperture::SecureComputation</text>
<text text-anchor="middle" x="276" y="-146" font-family="Helvetica,sans-Serif" font-size="10.00">::send_to_server</text>
</a>
</g>
</g>
<!-- Node13&#45;&gt;Node14 -->
<g id="edge14_Node000013_Node000014" class="edge">
<title>Node13&#45;&gt;Node14</title>
<g id="a_edge14_Node000013_Node000014"><a xlink:title=" ">
<path fill="none" stroke="#63b8ff" d="M400.88,-34.22C397.82,-35.71 394.85,-37.3 392,-39 346.94,-65.97 306.65,-114.46 287.98,-138.96"/>
<polygon fill="#63b8ff" stroke="#63b8ff" points="402.53,-37.32 410.27,-30.08 399.7,-30.92 402.53,-37.32"/>
</a>
</g>
</g>
<!-- Node14&#45;&gt;Node3 -->
<g id="edge15_Node000014_Node000003" class="edge">
<title>Node14&#45;&gt;Node3</title>
<g id="a_edge15_Node000014_Node000003"><a xlink:title=" ">
<path fill="none" stroke="#63b8ff" d="M251.69,-176.35C211.69,-214.7 130.96,-292.1 96.82,-324.83"/>
<polygon fill="#63b8ff" stroke="#63b8ff" points="254.33,-178.67 259.12,-169.22 249.48,-173.62 254.33,-178.67"/>
</a>
</g>
</g>
</g>
</svg>

<g id="navigator" transform="translate(0 0)" fill="#404254">
  <rect fill="#f2f5e9" fill-opacity="0.5" stroke="#606060" stroke-width=".5" x="0" y="0" width="60" height="60"/>
  <use id="zoomplus" xlink:href="#zoomPlus" x="17" y="9" onmousedown="handleZoom(evt,'in')"/>
  <use id="zoomminus" xlink:href="#zoomMin" x="42" y="9" onmousedown="handleZoom(evt,'out')"/>
  <use id="reset" xlink:href="#resetDef" x="30" y="36" onmousedown="handleReset()"/>
   <use id="arrowup" xlink:href="#arrowUp" x="0" y="0" onmousedown="handlePan(0,-1)"/>
  <use id="arrowright" xlink:href="#arrowRight" x="0" y="0" onmousedown="handlePan(1,0)"/>
  <use id="arrowdown" xlink:href="#arrowDown" x="0" y="0" onmousedown="handlePan(0,1)"/>
  <use id="arrowleft" xlink:href="#arrowLeft" x="0" y="0" onmousedown="handlePan(-1,0)"/>
</g>
<svg viewBox="0 0 15 15" width="100%" height="30px" preserveAspectRatio="xMaxYMin meet">
 <g id="arrow_out" transform="scale(0.3 0.3)">
  <a xlink:href="classaperture_1_1Expr_a209381a5628dff4606c7db5a5d0e9b0d_icgraph_org.svg" target="_base">
   <rect id="button" ry="5" rx="5" y="6" x="6" height="38" width="38"
        fill="#f2f5e9" fill-opacity="0.5" stroke="#606060" stroke-width="1.0"/>
   <path id="arrow"
     d="M 11.500037,31.436501 C 11.940474,20.09759 22.043105,11.32322 32.158766,21.979434 L 37.068811,17.246167 C 37.068811,17.246167 37.088388,32 37.088388,32 L 22.160133,31.978069 C 22.160133,31.978069 26.997745,27.140456 26.997745,27.140456 C 18.528582,18.264221 13.291696,25.230495 11.500037,31.436501 z"
     style="fill:#404040;"/>
  </a>
 </g>
</svg>

<style type='text/css'>
<![CDATA[
[data-mouse-over-selected='false'] { opacity: 0.7; }
[data-mouse-over-selected='true']  { opacity: 1.0; }
]]>
</style>
<script type="application/ecmascript"><![CDATA[
document.addEventListener('DOMContentLoaded', (event) => {
  highlightEdges();
  highlightAdjacentNodes();
});
]]></script>
</svg>
