<?xml version="1.0" encoding="UTF-8" standalone="no"?>
<!DOCTYPE svg PUBLIC "-//W3C//DTD SVG 1.1//EN"
 "http://www.w3.org/Graphics/SVG/1.1/DTD/svg11.dtd">
<!-- Generated by graphviz version 2.43.0 (0)
 -->
<!-- Title: aperture::Hole&lt; T &gt; Pages: 1 -->
<svg width="176pt" height="93pt"
 viewBox="0.00 0.00 176.00 93.00" xmlns="http://www.w3.org/2000/svg" xmlns:xlink="http://www.w3.org/1999/xlink">
<g id="graph0" class="graph" transform="scale(1 1) rotate(0) translate(4 89)">
<title>aperture::Hole&lt; T &gt;</title>
<!-- Node1 -->
<g id="Node000001" class="node">
<title>Node1</title>
<g id="a_Node000001"><a xlink:title=" ">
<polygon fill="#999999" stroke="#666666" points="144.5,-19 29.5,-19 29.5,0 144.5,0 144.5,-19"/>
<text text-anchor="middle" x="87" y="-7" font-family="Helvetica,sans-Serif" font-size="10.00">aperture::Hole&lt; T &gt;</text>
</a>
</g>
</g>
<!-- Node2 -->
<g id="Node000002" class="node">
<title>Node2</title>
<g id="a_Node000002"><a xlink:title=" ">
<polygon fill="white" stroke="#666666" points="44,-85 0,-85 0,-66 44,-66 44,-85"/>
<text text-anchor="middle" x="22" y="-73" font-family="Helvetica,sans-Serif" font-size="10.00">string</text>
</a>
</g>
</g>
<!-- Node2&#45;&gt;Node1 -->
<g id="edge1_Node000001_Node000002" class="edge">
<title>Node2&#45;&gt;Node1</title>
<g id="a_edge1_Node000001_Node000002"><a xlink:title=" ">
<path fill="none" stroke="#9a32cd" stroke-dasharray="5,2" d="M34.13,-57.55C39.29,-50.83 45.59,-43.24 52,-37 58.77,-30.41 67.19,-23.98 74.08,-19.11"/>
<polygon fill="#9a32cd" stroke="#9a32cd" points="31.04,-55.84 27.89,-65.96 36.66,-60.01 31.04,-55.84"/>
</a>
</g>
<text text-anchor="middle" x="67.5" y="-40" font-family="Helvetica,sans-Serif" font-size="10.00" fill="grey"> name</text>
</g>
<!-- Node3 -->
<g id="Node000003" class="node">
<title>Node3</title>
<g id="a_Node000003"><a xlink:title=" ">
<polygon fill="white" stroke="#666666" points="112,-85 62,-85 62,-66 112,-66 112,-85"/>
<text text-anchor="middle" x="87" y="-73" font-family="Helvetica,sans-Serif" font-size="10.00">double</text>
</a>
</g>
</g>
<!-- Node3&#45;&gt;Node1 -->
<g id="edge2_Node000001_Node000003" class="edge">
<title>Node3&#45;&gt;Node1</title>
<g id="a_edge2_Node000001_Node000003"><a xlink:title=" ">
<path fill="none" stroke="#9a32cd" stroke-dasharray="5,2" d="M87,-55.58C87,-43.63 87,-28.72 87,-19.41"/>
<polygon fill="#9a32cd" stroke="#9a32cd" points="83.5,-55.87 87,-65.87 90.5,-55.87 83.5,-55.87"/>
</a>
</g>
<text text-anchor="middle" x="102.5" y="-40" font-family="Helvetica,sans-Serif" font-size="10.00" fill="grey"> value</text>
</g>
<!-- Node4 -->
<g id="Node000004" class="node">
<title>Node4</title>
<g id="a_Node000004"><a xlink:title=" ">
<polygon fill="white" stroke="#666666" points="168,-85 130,-85 130,-66 168,-66 168,-85"/>
<text text-anchor="middle" x="149" y="-73" font-family="Helvetica,sans-Serif" font-size="10.00">bool</text>
</a>
</g>
</g>
<!-- Node4&#45;&gt;Node1 -->
<g id="edge3_Node000001_Node000004" class="edge">
<title>Node4&#45;&gt;Node1</title>
<g id="a_edge3_Node000001_Node000004"><a xlink:title=" ">
<path fill="none" stroke="#9a32cd" stroke-dasharray="5,2" d="M138.33,-57.47C133.72,-50.74 128.01,-43.16 122,-37 115.5,-30.35 107.25,-24.02 100.39,-19.21"/>
<polygon fill="#9a32cd" stroke="#9a32cd" points="135.45,-59.46 143.86,-65.9 141.31,-55.62 135.45,-59.46"/>
</a>
</g>
<text text-anchor="middle" x="145" y="-40" font-family="Helvetica,sans-Serif" font-size="10.00" fill="grey"> filled</text>
</g>
</g>
</svg>
