<?xml version="1.0" encoding="UTF-8" standalone="no"?>
<!DOCTYPE svg PUBLIC "-//W3C//DTD SVG 1.1//EN"
 "http://www.w3.org/Graphics/SVG/1.1/DTD/svg11.dtd">
<!-- Generated by graphviz version 2.43.0 (0)
 -->
<!-- Title: aperture::build::z Pages: 1 -->
<svg width="556pt" height="27pt"
 viewBox="0.00 0.00 556.00 27.00" xmlns="http://www.w3.org/2000/svg" xmlns:xlink="http://www.w3.org/1999/xlink">
<g id="graph0" class="graph" transform="scale(1 1) rotate(0) translate(4 23)">
<title>aperture::build::z</title>
<!-- Node1 -->
<g id="Node000001" class="node">
<title>Node1</title>
<g id="a_Node000001"><a xlink:title=" ">
<polygon fill="#999999" stroke="#666666" points="99,-19 0,-19 0,0 99,0 99,-19"/>
<text text-anchor="middle" x="49.5" y="-7" font-family="Helvetica,sans-Serif" font-size="10.00">aperture::build::z</text>
</a>
</g>
</g>
<!-- Node2 -->
<g id="Node000002" class="node">
<title>Node2</title>
<g id="a_Node000002"><a xlink:href="../../dc/d1b/namespaceaperture_1_1build.html#a6a50c75c9bd356f7389b861115a53f80" target="_top" xlink:title=" ">
<polygon fill="white" stroke="#666666" points="250,-19 135,-19 135,0 250,0 250,-19"/>
<text text-anchor="middle" x="192.5" y="-7" font-family="Helvetica,sans-Serif" font-size="10.00">aperture::build::hole</text>
</a>
</g>
</g>
<!-- Node1&#45;&gt;Node2 -->
<g id="edge1_Node000001_Node000002" class="edge">
<title>Node1&#45;&gt;Node2</title>
<g id="a_edge1_Node000001_Node000002"><a xlink:title=" ">
<path fill="none" stroke="#63b8ff" d="M99.02,-9.5C107.27,-9.5 115.96,-9.5 124.58,-9.5"/>
<polygon fill="#63b8ff" stroke="#63b8ff" points="124.63,-13 134.63,-9.5 124.63,-6 124.63,-13"/>
</a>
</g>
</g>
<!-- Node3 -->
<g id="Node000003" class="node">
<title>Node3</title>
<g id="a_Node000003"><a xlink:href="../../d9/ddc/classaperture_1_1Expr.html#a08e3571795fd516aae9939d952f43bae" target="_top" xlink:title=" ">
<polygon fill="white" stroke="#666666" points="399,-19 286,-19 286,0 399,0 399,-19"/>
<text text-anchor="middle" x="342.5" y="-7" font-family="Helvetica,sans-Serif" font-size="10.00">aperture::Expr::hole</text>
</a>
</g>
</g>
<!-- Node2&#45;&gt;Node3 -->
<g id="edge2_Node000002_Node000003" class="edge">
<title>Node2&#45;&gt;Node3</title>
<g id="a_edge2_Node000002_Node000003"><a xlink:title=" ">
<path fill="none" stroke="#63b8ff" d="M250.3,-9.5C258.53,-9.5 267.06,-9.5 275.45,-9.5"/>
<polygon fill="#63b8ff" stroke="#63b8ff" points="275.59,-13 285.59,-9.5 275.59,-6 275.59,-13"/>
</a>
</g>
</g>
<!-- Node4 -->
<g id="Node000004" class="node">
<title>Node4</title>
<g id="a_Node000004"><a xlink:href="../../d9/ddc/classaperture_1_1Expr.html#ac26bb8edfdda81c4123a6e7b125f1fc0" target="_top" xlink:title=" ">
<polygon fill="white" stroke="#666666" points="548,-19 435,-19 435,0 548,0 548,-19"/>
<text text-anchor="middle" x="491.5" y="-7" font-family="Helvetica,sans-Serif" font-size="10.00">aperture::Expr::Expr</text>
</a>
</g>
</g>
<!-- Node3&#45;&gt;Node4 -->
<g id="edge3_Node000003_Node000004" class="edge">
<title>Node3&#45;&gt;Node4</title>
<g id="a_edge3_Node000003_Node000004"><a xlink:title=" ">
<path fill="none" stroke="#63b8ff" d="M399.07,-9.5C407.49,-9.5 416.24,-9.5 424.84,-9.5"/>
<polygon fill="#63b8ff" stroke="#63b8ff" points="424.85,-13 434.85,-9.5 424.85,-6 424.85,-13"/>
</a>
</g>
</g>
</g>
</svg>
