<?xml version="1.0" encoding="UTF-8" standalone="no"?>
<!DOCTYPE svg PUBLIC "-//W3C//DTD SVG 1.1//EN"
 "http://www.w3.org/Graphics/SVG/1.1/DTD/svg11.dtd">
<!-- Generated by graphviz version 2.43.0 (0)
 -->
<!-- Title: aperture::Computation Pages: 1 -->
<svg width="176pt" height="159pt"
 viewBox="0.00 0.00 175.50 159.00" xmlns="http://www.w3.org/2000/svg" xmlns:xlink="http://www.w3.org/1999/xlink">
<g id="graph0" class="graph" transform="scale(1 1) rotate(0) translate(4 155)">
<title>aperture::Computation</title>
<!-- Node1 -->
<g id="Node000001" class="node">
<title>Node1</title>
<g id="a_Node000001"><a xlink:title=" ">
<polygon fill="#999999" stroke="#666666" points="131,-19 4,-19 4,0 131,0 131,-19"/>
<text text-anchor="middle" x="67.5" y="-7" font-family="Helvetica,sans-Serif" font-size="10.00">aperture::Computation</text>
</a>
</g>
</g>
<!-- Node2 -->
<g id="Node000002" class="node">
<title>Node2</title>
<g id="a_Node000002"><a xlink:title=" ">
<polygon fill="white" stroke="#666666" points="63,-85 0,-85 0,-66 63,-66 63,-85"/>
<text text-anchor="middle" x="31.5" y="-73" font-family="Helvetica,sans-Serif" font-size="10.00">Evaluator</text>
</a>
</g>
</g>
<!-- Node2&#45;&gt;Node1 -->
<g id="edge1_Node000001_Node000002" class="edge">
<title>Node2&#45;&gt;Node1</title>
<g id="a_edge1_Node000001_Node000002"><a xlink:title=" ">
<path fill="none" stroke="#9a32cd" stroke-dasharray="5,2" d="M35.21,-55.53C36.89,-49.37 39.25,-42.66 42.5,-37 46.28,-30.42 52.01,-24.18 57.03,-19.42"/>
<polygon fill="#9a32cd" stroke="#9a32cd" points="31.7,-55.17 32.87,-65.7 38.52,-56.74 31.7,-55.17"/>
</a>
</g>
<text text-anchor="middle" x="67.5" y="-40" font-family="Helvetica,sans-Serif" font-size="10.00" fill="grey"> evaluator</text>
</g>
<!-- Node3 -->
<g id="Node000003" class="node">
<title>Node3</title>
<g id="a_Node000003"><a xlink:href="../../d9/ddc/classaperture_1_1Expr.html" target="_top" xlink:title=" ">
<polygon fill="white" stroke="#666666" points="167.5,-85 81.5,-85 81.5,-66 167.5,-66 167.5,-85"/>
<text text-anchor="middle" x="124.5" y="-73" font-family="Helvetica,sans-Serif" font-size="10.00">aperture::Expr</text>
</a>
</g>
</g>
<!-- Node3&#45;&gt;Node1 -->
<g id="edge2_Node000001_Node000003" class="edge">
<title>Node3&#45;&gt;Node1</title>
<g id="a_edge2_Node000001_Node000003"><a xlink:title=" ">
<path fill="none" stroke="#9a32cd" stroke-dasharray="5,2" d="M110.79,-58.08C105.19,-51.47 98.61,-43.81 92.5,-37 87.09,-30.97 80.84,-24.35 75.94,-19.23"/>
<polygon fill="#9a32cd" stroke="#9a32cd" points="108.13,-60.36 117.25,-65.76 113.49,-55.85 108.13,-60.36"/>
</a>
</g>
<text text-anchor="middle" x="130" y="-40" font-family="Helvetica,sans-Serif" font-size="10.00" fill="grey"> expression</text>
</g>
<!-- Node4 -->
<g id="Node000004" class="node">
<title>Node4</title>
<g id="a_Node000004"><a xlink:title=" ">
<polygon fill="white" stroke="#666666" points="153,-151 96,-151 96,-132 153,-132 153,-151"/>
<text text-anchor="middle" x="124.5" y="-139" font-family="Helvetica,sans-Serif" font-size="10.00">ValuePtr</text>
</a>
</g>
</g>
<!-- Node4&#45;&gt;Node3 -->
<g id="edge3_Node000003_Node000004" class="edge">
<title>Node4&#45;&gt;Node3</title>
<g id="a_edge3_Node000003_Node000004"><a xlink:title=" ">
<path fill="none" stroke="#9a32cd" stroke-dasharray="5,2" d="M124.5,-121.58C124.5,-109.63 124.5,-94.72 124.5,-85.41"/>
<polygon fill="#9a32cd" stroke="#9a32cd" points="121,-121.87 124.5,-131.87 128,-121.87 121,-121.87"/>
</a>
</g>
<text text-anchor="middle" x="134" y="-106" font-family="Helvetica,sans-Serif" font-size="10.00" fill="grey"> val</text>
</g>
</g>
</svg>
