<?xml version="1.0" encoding="UTF-8" standalone="no"?>
<!DOCTYPE svg PUBLIC "-//W3C//DTD SVG 1.1//EN"
 "http://www.w3.org/Graphics/SVG/1.1/DTD/svg11.dtd">
<!-- Generated by graphviz version 2.43.0 (0)
 -->
<!-- Title: aperture::Computation::to_string Pages: 1 -->
<svg width="406pt" height="51pt"
 viewBox="0.00 0.00 406.00 50.50" xmlns="http://www.w3.org/2000/svg" xmlns:xlink="http://www.w3.org/1999/xlink">
<g id="graph0" class="graph" transform="scale(1 1) rotate(0) translate(4 46.5)">
<title>aperture::Computation::to_string</title>
<!-- Node1 -->
<g id="Node000001" class="node">
<title>Node1</title>
<g id="a_Node000001"><a xlink:title=" ">
<polygon fill="#999999" stroke="#666666" points="127,-30 0,-30 0,0 127,0 127,-30"/>
<text text-anchor="start" x="8" y="-18" font-family="Helvetica,sans-Serif" font-size="10.00">aperture::Computation</text>
<text text-anchor="middle" x="63.5" y="-7" font-family="Helvetica,sans-Serif" font-size="10.00">::to_string</text>
</a>
</g>
</g>
<!-- Node2 -->
<g id="Node000002" class="node">
<title>Node2</title>
<g id="a_Node000002"><a xlink:href="../../d9/ddc/classaperture_1_1Expr.html#adcea8cd2ac6a29432d7e47ed5d612e05" target="_top" xlink:title=" ">
<polygon fill="white" stroke="#666666" points="264,-30 163,-30 163,0 264,0 264,-30"/>
<text text-anchor="start" x="171" y="-18" font-family="Helvetica,sans-Serif" font-size="10.00">aperture::Expr::to</text>
<text text-anchor="middle" x="213.5" y="-7" font-family="Helvetica,sans-Serif" font-size="10.00">_string</text>
</a>
</g>
</g>
<!-- Node1&#45;&gt;Node2 -->
<g id="edge1_Node000001_Node000002" class="edge">
<title>Node1&#45;&gt;Node2</title>
<g id="a_edge1_Node000001_Node000002"><a xlink:title=" ">
<path fill="none" stroke="#63b8ff" d="M127.27,-15C135.67,-15 144.27,-15 152.62,-15"/>
<polygon fill="#63b8ff" stroke="#63b8ff" points="152.65,-18.5 162.65,-15 152.65,-11.5 152.65,-18.5"/>
</a>
</g>
</g>
<!-- Node3 -->
<g id="Node000003" class="node">
<title>Node3</title>
<g id="a_Node000003"><a xlink:href="../../df/dc1/namespacesecure.html#a111c484fbf4d62120d4412ed93bdc686" target="_top" xlink:title=" ">
<polygon fill="white" stroke="#666666" points="398,-24.5 300,-24.5 300,-5.5 398,-5.5 398,-24.5"/>
<text text-anchor="middle" x="349" y="-12.5" font-family="Helvetica,sans-Serif" font-size="10.00">secure::to_string</text>
</a>
</g>
</g>
<!-- Node2&#45;&gt;Node3 -->
<g id="edge2_Node000002_Node000003" class="edge">
<title>Node2&#45;&gt;Node3</title>
<g id="a_edge2_Node000002_Node000003"><a xlink:title=" ">
<path fill="none" stroke="#63b8ff" d="M264.21,-15C272.43,-15 281.02,-15 289.44,-15"/>
<polygon fill="#63b8ff" stroke="#63b8ff" points="289.58,-18.5 299.58,-15 289.58,-11.5 289.58,-18.5"/>
</a>
</g>
</g>
<!-- Node3&#45;&gt;Node3 -->
<g id="edge3_Node000003_Node000003" class="edge">
<title>Node3&#45;&gt;Node3</title>
<g id="a_edge3_Node000003_Node000003"><a xlink:title=" ">
<path fill="none" stroke="#63b8ff" d="M328.35,-24.58C318.3,-33.23 325.18,-42.5 349,-42.5 364.26,-42.5 372.57,-38.7 373.93,-33.69"/>
<polygon fill="#63b8ff" stroke="#63b8ff" points="377.07,-32.15 369.65,-24.58 370.73,-35.12 377.07,-32.15"/>
</a>
</g>
</g>
</g>
</svg>
