<?xml version="1.0" encoding="UTF-8" standalone="no"?>
<!DOCTYPE svg PUBLIC "-//W3C//DTD SVG 1.1//EN"
 "http://www.w3.org/Graphics/SVG/1.1/DTD/svg11.dtd">
<!-- Generated by graphviz version 2.43.0 (0)
 -->
<!-- Title: aperture::Expr::hole Pages: 1 -->
<svg width="451pt" height="101pt"
 viewBox="0.00 0.00 451.00 101.00" xmlns="http://www.w3.org/2000/svg" xmlns:xlink="http://www.w3.org/1999/xlink">

<svg id="main" version="1.1" xmlns="http://www.w3.org/2000/svg" xmlns:xlink="http://www.w3.org/1999/xlink" xml:space="preserve" onload="init(evt)">
<style type="text/css"><![CDATA[
.node, .edge {opacity: 0.7;}
.node.selected, .edge.selected {opacity: 1;}
.edge:hover path { stroke: red; }
.edge:hover polygon { stroke: red; fill: red; }
]]></style>
<script type="application/ecmascript" xlink:href="../../svg.min.js"/>
<svg id="graph" class="graph">
<g id="graph0" class="graph" transform="scale(1 1) rotate(0) translate(4 97)">
<title>aperture::Expr::hole</title>
<!-- Node1 -->
<g id="Node000001" class="node">
<title>Node1</title>
<g id="a_Node000001"><a xlink:title=" ">
<polygon fill="#999999" stroke="#666666" points="443,-37 330,-37 330,-18 443,-18 443,-37"/>
<text text-anchor="middle" x="386.5" y="-25" font-family="Helvetica,sans-Serif" font-size="10.00">aperture::Expr::hole</text>
</a>
</g>
</g>
<!-- Node2 -->
<g id="Node000002" class="node">
<title>Node2</title>
<g id="a_Node000002"><a xlink:href="../../dc/d1b/namespaceaperture_1_1build.html#a6a50c75c9bd356f7389b861115a53f80" target="_top" xlink:title=" ">
<polygon fill="white" stroke="#666666" points="272.5,-56 157.5,-56 157.5,-37 272.5,-37 272.5,-56"/>
<text text-anchor="middle" x="215" y="-44" font-family="Helvetica,sans-Serif" font-size="10.00">aperture::build::hole</text>
</a>
</g>
</g>
<!-- Node1&#45;&gt;Node2 -->
<g id="edge1_Node000001_Node000002" class="edge">
<title>Node1&#45;&gt;Node2</title>
<g id="a_edge1_Node000001_Node000002"><a xlink:title=" ">
<path fill="none" stroke="#63b8ff" d="M319.93,-34.85C304.38,-36.59 287.91,-38.44 272.79,-40.13"/>
<polygon fill="#63b8ff" stroke="#63b8ff" points="320.45,-38.31 330,-33.72 319.67,-31.36 320.45,-38.31"/>
</a>
</g>
</g>
<!-- Node6 -->
<g id="Node000006" class="node">
<title>Node6</title>
<g id="a_Node000006"><a xlink:href="../../d6/df5/classaperture_1_1Hole.html#a2e1f11aa96bef6ccc2048cbaa86c4c95" target="_top" xlink:title=" ">
<polygon fill="white" stroke="#666666" points="294,-19 136,-19 136,0 294,0 294,-19"/>
<text text-anchor="middle" x="215" y="-7" font-family="Helvetica,sans-Serif" font-size="10.00">aperture::Hole::operator Expr</text>
</a>
</g>
</g>
<!-- Node1&#45;&gt;Node6 -->
<g id="edge5_Node000001_Node000006" class="edge">
<title>Node1&#45;&gt;Node6</title>
<g id="a_edge5_Node000001_Node000006"><a xlink:title=" ">
<path fill="none" stroke="#63b8ff" d="M319.86,-20.53C311.41,-19.63 302.7,-18.71 294.08,-17.79"/>
<polygon fill="#63b8ff" stroke="#63b8ff" points="319.69,-24.03 330,-21.61 320.42,-17.07 319.69,-24.03"/>
</a>
</g>
</g>
<!-- Node3 -->
<g id="Node000003" class="node">
<title>Node3</title>
<g id="a_Node000003"><a xlink:href="../../dc/d1b/namespaceaperture_1_1build.html#ad5ad3a520e632a4547720c931b53ad68" target="_top" xlink:title=" ">
<polygon fill="white" stroke="#666666" points="100,-93 0,-93 0,-74 100,-74 100,-93"/>
<text text-anchor="middle" x="50" y="-81" font-family="Helvetica,sans-Serif" font-size="10.00">aperture::build::x</text>
</a>
</g>
</g>
<!-- Node2&#45;&gt;Node3 -->
<g id="edge2_Node000002_Node000003" class="edge">
<title>Node2&#45;&gt;Node3</title>
<g id="a_edge2_Node000002_Node000003"><a xlink:title=" ">
<path fill="none" stroke="#63b8ff" d="M162.07,-58.29C139.81,-63.34 114.16,-69.16 93.12,-73.94"/>
<polygon fill="#63b8ff" stroke="#63b8ff" points="163.05,-61.66 172.02,-56.03 161.5,-54.83 163.05,-61.66"/>
</a>
</g>
</g>
<!-- Node4 -->
<g id="Node000004" class="node">
<title>Node4</title>
<g id="a_Node000004"><a xlink:href="../../dc/d1b/namespaceaperture_1_1build.html#a840a8a34752dac04242b1ca919af1ede" target="_top" xlink:title=" ">
<polygon fill="white" stroke="#666666" points="100,-56 0,-56 0,-37 100,-37 100,-56"/>
<text text-anchor="middle" x="50" y="-44" font-family="Helvetica,sans-Serif" font-size="10.00">aperture::build::y</text>
</a>
</g>
</g>
<!-- Node2&#45;&gt;Node4 -->
<g id="edge3_Node000002_Node000004" class="edge">
<title>Node2&#45;&gt;Node4</title>
<g id="a_edge3_Node000002_Node000004"><a xlink:title=" ">
<path fill="none" stroke="#63b8ff" d="M147.22,-46.5C131.46,-46.5 114.94,-46.5 100.12,-46.5"/>
<polygon fill="#63b8ff" stroke="#63b8ff" points="147.45,-50 157.45,-46.5 147.45,-43 147.45,-50"/>
</a>
</g>
</g>
<!-- Node5 -->
<g id="Node000005" class="node">
<title>Node5</title>
<g id="a_Node000005"><a xlink:href="../../dc/d1b/namespaceaperture_1_1build.html#af3ce86ababe360c2bfd17cc68bffa553" target="_top" xlink:title=" ">
<polygon fill="white" stroke="#666666" points="99.5,-19 0.5,-19 0.5,0 99.5,0 99.5,-19"/>
<text text-anchor="middle" x="50" y="-7" font-family="Helvetica,sans-Serif" font-size="10.00">aperture::build::z</text>
</a>
</g>
</g>
<!-- Node2&#45;&gt;Node5 -->
<g id="edge4_Node000002_Node000005" class="edge">
<title>Node2&#45;&gt;Node5</title>
<g id="a_edge4_Node000002_Node000005"><a xlink:title=" ">
<path fill="none" stroke="#63b8ff" d="M162.07,-34.71C139.81,-29.66 114.16,-23.84 93.12,-19.06"/>
<polygon fill="#63b8ff" stroke="#63b8ff" points="161.5,-38.17 172.02,-36.97 163.05,-31.34 161.5,-38.17"/>
</a>
</g>
</g>
</g>
</svg>
</svg>

<style type='text/css'>
<![CDATA[
[data-mouse-over-selected='false'] { opacity: 0.7; }
[data-mouse-over-selected='true']  { opacity: 1.0; }
]]>
</style>
<script type="application/ecmascript"><![CDATA[
document.addEventListener('DOMContentLoaded', (event) => {
  highlightEdges();
  highlightAdjacentNodes();
});
]]></script>
</svg>
