<?xml version="1.0" encoding="UTF-8" standalone="no"?>
<!DOCTYPE svg PUBLIC "-//W3C//DTD SVG 1.1//EN"
 "http://www.w3.org/Graphics/SVG/1.1/DTD/svg11.dtd">
<!-- Generated by graphviz version 2.43.0 (0)
 -->
<!-- Title: aperture::Expr::to_string Pages: 1 -->
<svg width="501pt" height="124pt"
 viewBox="0.00 0.00 501.00 123.50" xmlns="http://www.w3.org/2000/svg" xmlns:xlink="http://www.w3.org/1999/xlink">
<g id="graph0" class="graph" transform="scale(1 1) rotate(0) translate(4 119.5)">
<title>aperture::Expr::to_string</title>
<!-- Node1 -->
<g id="Node000001" class="node">
<title>Node1</title>
<g id="a_Node000001"><a xlink:title=" ">
<polygon fill="#999999" stroke="#666666" points="493,-78 392,-78 392,-48 493,-48 493,-78"/>
<text text-anchor="start" x="400" y="-66" font-family="Helvetica,sans-Serif" font-size="10.00">aperture::Expr::to</text>
<text text-anchor="middle" x="442.5" y="-55" font-family="Helvetica,sans-Serif" font-size="10.00">_string</text>
</a>
</g>
</g>
<!-- Node2 -->
<g id="Node000002" class="node">
<title>Node2</title>
<g id="a_Node000002"><a xlink:href="../../d5/dca/namespaceaperture.html#a19c3bd2e6b9898d1f6d91c5e11e7dd6d" target="_top" xlink:title=" ">
<polygon fill="white" stroke="#666666" points="337,-115.5 215,-115.5 215,-96.5 337,-96.5 337,-115.5"/>
<text text-anchor="middle" x="276" y="-103.5" font-family="Helvetica,sans-Serif" font-size="10.00">aperture::operator&lt;&lt;</text>
</a>
</g>
</g>
<!-- Node1&#45;&gt;Node2 -->
<g id="edge1_Node000001_Node000002" class="edge">
<title>Node1&#45;&gt;Node2</title>
<g id="a_edge1_Node000001_Node000002"><a xlink:title=" ">
<path fill="none" stroke="#63b8ff" d="M382.09,-79.99C373.36,-82.39 364.46,-84.8 356,-87 343.71,-90.2 330.3,-93.5 318.08,-96.43"/>
<polygon fill="#63b8ff" stroke="#63b8ff" points="383.15,-83.32 391.85,-77.28 381.28,-76.58 383.15,-83.32"/>
</a>
</g>
</g>
<!-- Node3 -->
<g id="Node000003" class="node">
<title>Node3</title>
<g id="a_Node000003"><a xlink:href="../../db/dd3/classaperture_1_1SecureComputation.html#a90f59528e017955ac27d1e5c8b861787" target="_top" xlink:title=" ">
<polygon fill="white" stroke="#666666" points="356,-78 196,-78 196,-48 356,-48 356,-78"/>
<text text-anchor="start" x="204" y="-66" font-family="Helvetica,sans-Serif" font-size="10.00">aperture::SecureComputation</text>
<text text-anchor="middle" x="276" y="-55" font-family="Helvetica,sans-Serif" font-size="10.00">::send_to_server</text>
</a>
</g>
</g>
<!-- Node1&#45;&gt;Node3 -->
<g id="edge2_Node000001_Node000003" class="edge">
<title>Node1&#45;&gt;Node3</title>
<g id="a_edge2_Node000001_Node000003"><a xlink:title=" ">
<path fill="none" stroke="#63b8ff" d="M381.45,-63C373.2,-63 364.63,-63 356.1,-63"/>
<polygon fill="#63b8ff" stroke="#63b8ff" points="381.7,-66.5 391.7,-63 381.7,-59.5 381.7,-66.5"/>
</a>
</g>
</g>
<!-- Node5 -->
<g id="Node000005" class="node">
<title>Node5</title>
<g id="a_Node000005"><a xlink:href="../../d2/d59/classaperture_1_1Computation.html#a2bb28574bba9ef07b79d9db98aef83ba" target="_top" xlink:title=" ">
<polygon fill="white" stroke="#666666" points="339.5,-30 212.5,-30 212.5,0 339.5,0 339.5,-30"/>
<text text-anchor="start" x="220.5" y="-18" font-family="Helvetica,sans-Serif" font-size="10.00">aperture::Computation</text>
<text text-anchor="middle" x="276" y="-7" font-family="Helvetica,sans-Serif" font-size="10.00">::to_string</text>
</a>
</g>
</g>
<!-- Node1&#45;&gt;Node5 -->
<g id="edge4_Node000001_Node000005" class="edge">
<title>Node1&#45;&gt;Node5</title>
<g id="a_edge4_Node000001_Node000005"><a xlink:title=" ">
<path fill="none" stroke="#63b8ff" d="M381.66,-45.54C364.28,-40.47 345.46,-34.97 328.63,-30.06"/>
<polygon fill="#63b8ff" stroke="#63b8ff" points="381.12,-49.03 391.7,-48.47 383.08,-42.31 381.12,-49.03"/>
</a>
</g>
</g>
<!-- Node4 -->
<g id="Node000004" class="node">
<title>Node4</title>
<g id="a_Node000004"><a xlink:href="../../db/dd3/classaperture_1_1SecureComputation.html#a62641e690ce3262135ed09503948f6f6" target="_top" xlink:title=" ">
<polygon fill="white" stroke="#666666" points="160,-78 0,-78 0,-48 160,-48 160,-78"/>
<text text-anchor="start" x="8" y="-66" font-family="Helvetica,sans-Serif" font-size="10.00">aperture::SecureComputation</text>
<text text-anchor="middle" x="80" y="-55" font-family="Helvetica,sans-Serif" font-size="10.00">::secure_compute</text>
</a>
</g>
</g>
<!-- Node3&#45;&gt;Node4 -->
<g id="edge3_Node000003_Node000004" class="edge">
<title>Node3&#45;&gt;Node4</title>
<g id="a_edge3_Node000003_Node000004"><a xlink:title=" ">
<path fill="none" stroke="#63b8ff" d="M185.56,-63C177.12,-63 168.59,-63 160.25,-63"/>
<polygon fill="#63b8ff" stroke="#63b8ff" points="185.81,-66.5 195.81,-63 185.81,-59.5 185.81,-66.5"/>
</a>
</g>
</g>
</g>
</svg>
