<?xml version="1.0" encoding="UTF-8" standalone="no"?>
<!DOCTYPE svg PUBLIC "-//W3C//DTD SVG 1.1//EN"
 "http://www.w3.org/Graphics/SVG/1.1/DTD/svg11.dtd">
<!-- Generated by graphviz version 2.43.0 (0)
 -->
<!-- Title: aperture::Expr::Expr Pages: 1 -->
<svg width="636pt" height="415pt"
 viewBox="0.00 0.00 636.00 415.00" xmlns="http://www.w3.org/2000/svg" xmlns:xlink="http://www.w3.org/1999/xlink">
<g id="graph0" class="graph" transform="scale(1 1) rotate(0) translate(4 411)">
<title>aperture::Expr::Expr</title>
<!-- Node1 -->
<g id="Node000001" class="node">
<title>Node1</title>
<g id="a_Node000001"><a xlink:title=" ">
<polygon fill="#999999" stroke="#666666" points="628,-185 515,-185 515,-166 628,-166 628,-185"/>
<text text-anchor="middle" x="571.5" y="-173" font-family="Helvetica,sans-Serif" font-size="10.00">aperture::Expr::Expr</text>
</a>
</g>
</g>
<!-- Node2 -->
<g id="Node000002" class="node">
<title>Node2</title>
<g id="a_Node000002"><a xlink:href="../../d9/ddc/classaperture_1_1Expr.html#a08e3571795fd516aae9939d952f43bae" target="_top" xlink:title=" ">
<polygon fill="white" stroke="#666666" points="461,-352 348,-352 348,-333 461,-333 461,-352"/>
<text text-anchor="middle" x="404.5" y="-340" font-family="Helvetica,sans-Serif" font-size="10.00">aperture::Expr::hole</text>
</a>
</g>
</g>
<!-- Node1&#45;&gt;Node2 -->
<g id="edge1_Node000001_Node000002" class="edge">
<title>Node1&#45;&gt;Node2</title>
<g id="a_edge1_Node000001_Node000002"><a xlink:title=" ">
<path fill="none" stroke="#63b8ff" d="M564.11,-194.91C552.51,-227.05 524.83,-291.07 479,-324.5 473.69,-328.37 467.65,-331.42 461.37,-333.81"/>
<polygon fill="#63b8ff" stroke="#63b8ff" points="567.47,-195.92 567.44,-185.33 560.85,-193.63 567.47,-195.92"/>
</a>
</g>
</g>
<!-- Node8 -->
<g id="Node000008" class="node">
<title>Node8</title>
<g id="a_Node000008"><a xlink:href="../../d9/ddc/classaperture_1_1Expr.html#a9ec3df0de3a5667605ae6b23587dee12" target="_top" xlink:title=" ">
<polygon fill="white" stroke="#666666" points="474.5,-315 334.5,-315 334.5,-296 474.5,-296 474.5,-315"/>
<text text-anchor="middle" x="404.5" y="-303" font-family="Helvetica,sans-Serif" font-size="10.00">aperture::Expr::operator()</text>
</a>
</g>
</g>
<!-- Node1&#45;&gt;Node8 -->
<g id="edge7_Node000001_Node000008" class="edge">
<title>Node1&#45;&gt;Node8</title>
<g id="a_edge7_Node000001_Node000008"><a xlink:title=" ">
<path fill="none" stroke="#63b8ff" d="M560.58,-193.95C546.08,-219.1 516.68,-263.72 479,-287.5 473.56,-290.94 467.5,-293.72 461.27,-295.96"/>
<polygon fill="#63b8ff" stroke="#63b8ff" points="563.73,-195.49 565.55,-185.06 557.62,-192.08 563.73,-195.49"/>
</a>
</g>
</g>
<!-- Node9 -->
<g id="Node000009" class="node">
<title>Node9</title>
<g id="a_Node000009"><a xlink:href="../../d9/ddc/classaperture_1_1Expr.html#ac4b6132514572ab4b6859785125ef5e5" target="_top" xlink:title=" ">
<polygon fill="white" stroke="#666666" points="473.5,-278 335.5,-278 335.5,-259 473.5,-259 473.5,-278"/>
<text text-anchor="middle" x="404.5" y="-266" font-family="Helvetica,sans-Serif" font-size="10.00">aperture::Expr::operator*</text>
</a>
</g>
</g>
<!-- Node1&#45;&gt;Node9 -->
<g id="edge8_Node000001_Node000009" class="edge">
<title>Node1&#45;&gt;Node9</title>
<g id="a_edge8_Node000001_Node000009"><a xlink:title=" ">
<path fill="none" stroke="#63b8ff" d="M554.64,-192.34C537.56,-209.49 508.8,-235.61 479,-250.5 472.18,-253.91 464.68,-256.69 457.16,-258.97"/>
<polygon fill="#63b8ff" stroke="#63b8ff" points="557.16,-194.77 561.63,-185.17 552.15,-189.89 557.16,-194.77"/>
</a>
</g>
</g>
<!-- Node10 -->
<g id="Node000010" class="node">
<title>Node10</title>
<g id="a_Node000010"><a xlink:href="../../d9/ddc/classaperture_1_1Expr.html#a02be101a980c4364da1a1ac707cfeaaa" target="_top" xlink:title=" ">
<polygon fill="white" stroke="#666666" points="475,-241 334,-241 334,-222 475,-222 475,-241"/>
<text text-anchor="middle" x="404.5" y="-229" font-family="Helvetica,sans-Serif" font-size="10.00">aperture::Expr::operator+</text>
</a>
</g>
</g>
<!-- Node1&#45;&gt;Node10 -->
<g id="edge9_Node000001_Node000010" class="edge">
<title>Node1&#45;&gt;Node10</title>
<g id="a_edge9_Node000001_Node000010"><a xlink:title=" ">
<path fill="none" stroke="#63b8ff" d="M540.89,-189.16C523.19,-196.98 500.1,-206.58 479,-213.5 469.51,-216.61 459.18,-219.46 449.34,-221.93"/>
<polygon fill="#63b8ff" stroke="#63b8ff" points="542.43,-192.3 550.13,-185.02 539.57,-185.91 542.43,-192.3"/>
</a>
</g>
</g>
<!-- Node11 -->
<g id="Node000011" class="node">
<title>Node11</title>
<g id="a_Node000011"><a xlink:href="../../d9/ddc/classaperture_1_1Expr.html#aabd7876fa4fc124850f826baa510d625" target="_top" xlink:title=" ">
<polygon fill="white" stroke="#666666" points="473,-204 336,-204 336,-185 473,-185 473,-204"/>
<text text-anchor="middle" x="404.5" y="-192" font-family="Helvetica,sans-Serif" font-size="10.00">aperture::Expr::operator&#45;</text>
</a>
</g>
</g>
<!-- Node1&#45;&gt;Node11 -->
<g id="edge10_Node000001_Node000011" class="edge">
<title>Node1&#45;&gt;Node11</title>
<g id="a_edge10_Node000001_Node000011"><a xlink:title=" ">
<path fill="none" stroke="#63b8ff" d="M504.44,-183.11C494.1,-184.3 483.4,-185.53 473.02,-186.72"/>
<polygon fill="#63b8ff" stroke="#63b8ff" points="505.1,-186.55 514.64,-181.93 504.3,-179.6 505.1,-186.55"/>
</a>
</g>
</g>
<!-- Node12 -->
<g id="Node000012" class="node">
<title>Node12</title>
<g id="a_Node000012"><a xlink:href="../../d9/ddc/classaperture_1_1Expr.html#a85c4d283a965dc9870fbd259ecb93c49" target="_top" xlink:title=" ">
<polygon fill="white" stroke="#666666" points="473,-167 336,-167 336,-148 473,-148 473,-167"/>
<text text-anchor="middle" x="404.5" y="-155" font-family="Helvetica,sans-Serif" font-size="10.00">aperture::Expr::operator&#45;</text>
</a>
</g>
</g>
<!-- Node1&#45;&gt;Node12 -->
<g id="edge11_Node000001_Node000012" class="edge">
<title>Node1&#45;&gt;Node12</title>
<g id="a_edge11_Node000001_Node000012"><a xlink:title=" ">
<path fill="none" stroke="#63b8ff" d="M504.44,-168.29C494.1,-167.17 483.4,-166 473.02,-164.87"/>
<polygon fill="#63b8ff" stroke="#63b8ff" points="504.32,-171.8 514.64,-169.41 505.08,-164.84 504.32,-171.8"/>
</a>
</g>
</g>
<!-- Node13 -->
<g id="Node000013" class="node">
<title>Node13</title>
<g id="a_Node000013"><a xlink:href="../../d9/ddc/classaperture_1_1Expr.html#ac69cdfe5390c4fa2861e293adb23d36a" target="_top" xlink:title=" ">
<polygon fill="white" stroke="#666666" points="472.5,-130 336.5,-130 336.5,-111 472.5,-111 472.5,-130"/>
<text text-anchor="middle" x="404.5" y="-118" font-family="Helvetica,sans-Serif" font-size="10.00">aperture::Expr::operator/</text>
</a>
</g>
</g>
<!-- Node1&#45;&gt;Node13 -->
<g id="edge12_Node000001_Node000013" class="edge">
<title>Node1&#45;&gt;Node13</title>
<g id="a_edge12_Node000001_Node000013"><a xlink:title=" ">
<path fill="none" stroke="#63b8ff" d="M538.55,-161.82C521.13,-154.65 499.09,-146.02 479,-139.5 468.47,-136.08 456.94,-132.86 446.19,-130.08"/>
<polygon fill="#63b8ff" stroke="#63b8ff" points="537.64,-165.23 548.22,-165.85 540.33,-158.77 537.64,-165.23"/>
</a>
</g>
</g>
<!-- Node14 -->
<g id="Node000014" class="node">
<title>Node14</title>
<g id="a_Node000014"><a xlink:href="../../d9/ddc/classaperture_1_1Expr.html#a669180e27c924bb9c7d060684b2d6adc" target="_top" xlink:title=" ">
<polygon fill="white" stroke="#666666" points="475,-93 334,-93 334,-74 475,-74 475,-93"/>
<text text-anchor="middle" x="404.5" y="-81" font-family="Helvetica,sans-Serif" font-size="10.00">aperture::Expr::operator&lt;</text>
</a>
</g>
</g>
<!-- Node1&#45;&gt;Node14 -->
<g id="edge13_Node000001_Node000014" class="edge">
<title>Node1&#45;&gt;Node14</title>
<g id="a_edge13_Node000001_Node000014"><a xlink:title=" ">
<path fill="none" stroke="#63b8ff" d="M553.77,-158.48C536.5,-141.86 508.06,-117.01 479,-102.5 471.34,-98.67 462.83,-95.56 454.39,-93.06"/>
<polygon fill="#63b8ff" stroke="#63b8ff" points="551.72,-161.38 561.3,-165.9 556.63,-156.39 551.72,-161.38"/>
</a>
</g>
</g>
<!-- Node15 -->
<g id="Node000015" class="node">
<title>Node15</title>
<g id="a_Node000015"><a xlink:href="../../d9/ddc/classaperture_1_1Expr.html#a3cc898dd5e40f7ce76f703ce712946a9" target="_top" xlink:title=" ">
<polygon fill="white" stroke="#666666" points="479,-56 330,-56 330,-37 479,-37 479,-56"/>
<text text-anchor="middle" x="404.5" y="-44" font-family="Helvetica,sans-Serif" font-size="10.00">aperture::Expr::operator==</text>
</a>
</g>
</g>
<!-- Node1&#45;&gt;Node15 -->
<g id="edge14_Node000001_Node000015" class="edge">
<title>Node1&#45;&gt;Node15</title>
<g id="a_edge14_Node000001_Node000015"><a xlink:title=" ">
<path fill="none" stroke="#63b8ff" d="M560.24,-157.08C545.51,-132.4 516.04,-88.98 479,-65.5 472.88,-61.62 465.99,-58.53 458.96,-56.07"/>
<polygon fill="#63b8ff" stroke="#63b8ff" points="557.26,-158.93 565.3,-165.83 563.32,-155.42 557.26,-158.93"/>
</a>
</g>
</g>
<!-- Node16 -->
<g id="Node000016" class="node">
<title>Node16</title>
<g id="a_Node000016"><a xlink:href="../../d9/ddc/classaperture_1_1Expr.html#a10c1f562904697cfca06c6b0bfb98bfb" target="_top" xlink:title=" ">
<polygon fill="white" stroke="#666666" points="475,-19 334,-19 334,0 475,0 475,-19"/>
<text text-anchor="middle" x="404.5" y="-7" font-family="Helvetica,sans-Serif" font-size="10.00">aperture::Expr::operator&gt;</text>
</a>
</g>
</g>
<!-- Node1&#45;&gt;Node16 -->
<g id="edge15_Node000001_Node000016" class="edge">
<title>Node1&#45;&gt;Node16</title>
<g id="a_edge15_Node000001_Node000016"><a xlink:title=" ">
<path fill="none" stroke="#63b8ff" d="M563.99,-156.41C552.21,-124.79 524.28,-61.75 479,-28.5 473.69,-24.6 467.65,-21.5 461.37,-19.03"/>
<polygon fill="#63b8ff" stroke="#63b8ff" points="560.7,-157.6 567.37,-165.84 567.29,-155.24 560.7,-157.6"/>
</a>
</g>
</g>
<!-- Node3 -->
<g id="Node000003" class="node">
<title>Node3</title>
<g id="a_Node000003"><a xlink:href="../../dc/d1b/namespaceaperture_1_1build.html#a6a50c75c9bd356f7389b861115a53f80" target="_top" xlink:title=" ">
<polygon fill="white" stroke="#666666" points="272.5,-370 157.5,-370 157.5,-351 272.5,-351 272.5,-370"/>
<text text-anchor="middle" x="215" y="-358" font-family="Helvetica,sans-Serif" font-size="10.00">aperture::build::hole</text>
</a>
</g>
</g>
<!-- Node2&#45;&gt;Node3 -->
<g id="edge2_Node000002_Node000003" class="edge">
<title>Node2&#45;&gt;Node3</title>
<g id="a_edge2_Node000002_Node000003"><a xlink:title=" ">
<path fill="none" stroke="#63b8ff" d="M337.52,-348.83C316.3,-350.87 292.99,-353.11 272.51,-355.08"/>
<polygon fill="#63b8ff" stroke="#63b8ff" points="338.13,-352.29 347.75,-347.85 337.46,-345.32 338.13,-352.29"/>
</a>
</g>
</g>
<!-- Node7 -->
<g id="Node000007" class="node">
<title>Node7</title>
<g id="a_Node000007"><a xlink:href="../../d6/df5/classaperture_1_1Hole.html#a2e1f11aa96bef6ccc2048cbaa86c4c95" target="_top" xlink:title=" ">
<polygon fill="white" stroke="#666666" points="294,-333 136,-333 136,-314 294,-314 294,-333"/>
<text text-anchor="middle" x="215" y="-321" font-family="Helvetica,sans-Serif" font-size="10.00">aperture::Hole::operator Expr</text>
</a>
</g>
</g>
<!-- Node2&#45;&gt;Node7 -->
<g id="edge6_Node000002_Node000007" class="edge">
<title>Node2&#45;&gt;Node7</title>
<g id="a_edge6_Node000002_Node000007"><a xlink:title=" ">
<path fill="none" stroke="#63b8ff" d="M337.68,-335.83C323.59,-334.4 308.58,-332.88 294.09,-331.41"/>
<polygon fill="#63b8ff" stroke="#63b8ff" points="337.45,-339.32 347.75,-336.85 338.16,-332.36 337.45,-339.32"/>
</a>
</g>
</g>
<!-- Node4 -->
<g id="Node000004" class="node">
<title>Node4</title>
<g id="a_Node000004"><a xlink:href="../../dc/d1b/namespaceaperture_1_1build.html#ad5ad3a520e632a4547720c931b53ad68" target="_top" xlink:title=" ">
<polygon fill="white" stroke="#666666" points="100,-407 0,-407 0,-388 100,-388 100,-407"/>
<text text-anchor="middle" x="50" y="-395" font-family="Helvetica,sans-Serif" font-size="10.00">aperture::build::x</text>
</a>
</g>
</g>
<!-- Node3&#45;&gt;Node4 -->
<g id="edge3_Node000003_Node000004" class="edge">
<title>Node3&#45;&gt;Node4</title>
<g id="a_edge3_Node000003_Node000004"><a xlink:title=" ">
<path fill="none" stroke="#63b8ff" d="M162.07,-372.29C139.81,-377.34 114.16,-383.16 93.12,-387.94"/>
<polygon fill="#63b8ff" stroke="#63b8ff" points="163.05,-375.66 172.02,-370.03 161.5,-368.83 163.05,-375.66"/>
</a>
</g>
</g>
<!-- Node5 -->
<g id="Node000005" class="node">
<title>Node5</title>
<g id="a_Node000005"><a xlink:href="../../dc/d1b/namespaceaperture_1_1build.html#a840a8a34752dac04242b1ca919af1ede" target="_top" xlink:title=" ">
<polygon fill="white" stroke="#666666" points="100,-370 0,-370 0,-351 100,-351 100,-370"/>
<text text-anchor="middle" x="50" y="-358" font-family="Helvetica,sans-Serif" font-size="10.00">aperture::build::y</text>
</a>
</g>
</g>
<!-- Node3&#45;&gt;Node5 -->
<g id="edge4_Node000003_Node000005" class="edge">
<title>Node3&#45;&gt;Node5</title>
<g id="a_edge4_Node000003_Node000005"><a xlink:title=" ">
<path fill="none" stroke="#63b8ff" d="M147.22,-360.5C131.46,-360.5 114.94,-360.5 100.12,-360.5"/>
<polygon fill="#63b8ff" stroke="#63b8ff" points="147.45,-364 157.45,-360.5 147.45,-357 147.45,-364"/>
</a>
</g>
</g>
<!-- Node6 -->
<g id="Node000006" class="node">
<title>Node6</title>
<g id="a_Node000006"><a xlink:href="../../dc/d1b/namespaceaperture_1_1build.html#af3ce86ababe360c2bfd17cc68bffa553" target="_top" xlink:title=" ">
<polygon fill="white" stroke="#666666" points="99.5,-333 0.5,-333 0.5,-314 99.5,-314 99.5,-333"/>
<text text-anchor="middle" x="50" y="-321" font-family="Helvetica,sans-Serif" font-size="10.00">aperture::build::z</text>
</a>
</g>
</g>
<!-- Node3&#45;&gt;Node6 -->
<g id="edge5_Node000003_Node000006" class="edge">
<title>Node3&#45;&gt;Node6</title>
<g id="a_edge5_Node000003_Node000006"><a xlink:title=" ">
<path fill="none" stroke="#63b8ff" d="M162.07,-348.71C139.81,-343.66 114.16,-337.84 93.12,-333.06"/>
<polygon fill="#63b8ff" stroke="#63b8ff" points="161.5,-352.17 172.02,-350.97 163.05,-345.34 161.5,-352.17"/>
</a>
</g>
</g>
</g>
</svg>
