<?xml version="1.0" encoding="UTF-8" standalone="no"?>
<!DOCTYPE svg PUBLIC "-//W3C//DTD SVG 1.1//EN"
 "http://www.w3.org/Graphics/SVG/1.1/DTD/svg11.dtd">
<!-- Generated by graphviz version 2.43.0 (0)
 -->
<!-- Title: aperture::SecureComputation Pages: 1 -->
<svg width="221pt" height="225pt"
 viewBox="0.00 0.00 220.50 225.00" xmlns="http://www.w3.org/2000/svg" xmlns:xlink="http://www.w3.org/1999/xlink">

<svg id="main" version="1.1" xmlns="http://www.w3.org/2000/svg" xmlns:xlink="http://www.w3.org/1999/xlink" xml:space="preserve" onload="init(evt)">
<style type="text/css"><![CDATA[
.node, .edge {opacity: 0.7;}
.node.selected, .edge.selected {opacity: 1;}
.edge:hover path { stroke: red; }
.edge:hover polygon { stroke: red; fill: red; }
]]></style>
<script type="application/ecmascript" xlink:href="../../svg.min.js"/>
<svg id="graph" class="graph">
<g id="graph0" class="graph" transform="scale(1 1) rotate(0) translate(4 221)">
<title>aperture::SecureComputation</title>
<!-- Node1 -->
<g id="Node000001" class="node">
<title>Node1</title>
<g id="a_Node000001"><a xlink:title=" ">
<polygon fill="#999999" stroke="#666666" points="197.5,-19 37.5,-19 37.5,0 197.5,0 197.5,-19"/>
<text text-anchor="middle" x="117.5" y="-7" font-family="Helvetica,sans-Serif" font-size="10.00">aperture::SecureComputation</text>
</a>
</g>
</g>
<!-- Node2 -->
<g id="Node000002" class="node">
<title>Node2</title>
<g id="a_Node000002"><a xlink:href="../../d2/d59/classaperture_1_1Computation.html" target="_top" xlink:title=" ">
<polygon fill="white" stroke="#666666" points="131,-85 4,-85 4,-66 131,-66 131,-85"/>
<text text-anchor="middle" x="67.5" y="-73" font-family="Helvetica,sans-Serif" font-size="10.00">aperture::Computation</text>
</a>
</g>
</g>
<!-- Node2&#45;&gt;Node1 -->
<g id="edge1_Node000001_Node000002" class="edge">
<title>Node2&#45;&gt;Node1</title>
<g id="a_edge1_Node000001_Node000002"><a xlink:title=" ">
<path fill="none" stroke="#63b8ff" d="M80.57,-57.77C90.16,-45.49 102.81,-29.3 110.54,-19.41"/>
<polygon fill="#63b8ff" stroke="#63b8ff" points="77.64,-55.83 74.24,-65.87 83.16,-60.14 77.64,-55.83"/>
</a>
</g>
</g>
<!-- Node3 -->
<g id="Node000003" class="node">
<title>Node3</title>
<g id="a_Node000003"><a xlink:title=" ">
<polygon fill="white" stroke="#666666" points="63,-151 0,-151 0,-132 63,-132 63,-151"/>
<text text-anchor="middle" x="31.5" y="-139" font-family="Helvetica,sans-Serif" font-size="10.00">Evaluator</text>
</a>
</g>
</g>
<!-- Node3&#45;&gt;Node2 -->
<g id="edge2_Node000002_Node000003" class="edge">
<title>Node3&#45;&gt;Node2</title>
<g id="a_edge2_Node000002_Node000003"><a xlink:title=" ">
<path fill="none" stroke="#9a32cd" stroke-dasharray="5,2" d="M35.21,-121.53C36.89,-115.37 39.25,-108.66 42.5,-103 46.28,-96.42 52.01,-90.18 57.03,-85.42"/>
<polygon fill="#9a32cd" stroke="#9a32cd" points="31.7,-121.17 32.87,-131.7 38.52,-122.74 31.7,-121.17"/>
</a>
</g>
<text text-anchor="middle" x="67.5" y="-106" font-family="Helvetica,sans-Serif" font-size="10.00" fill="grey"> evaluator</text>
</g>
<!-- Node4 -->
<g id="Node000004" class="node">
<title>Node4</title>
<g id="a_Node000004"><a xlink:href="../../d9/ddc/classaperture_1_1Expr.html" target="_top" xlink:title=" ">
<polygon fill="white" stroke="#666666" points="167.5,-151 81.5,-151 81.5,-132 167.5,-132 167.5,-151"/>
<text text-anchor="middle" x="124.5" y="-139" font-family="Helvetica,sans-Serif" font-size="10.00">aperture::Expr</text>
</a>
</g>
</g>
<!-- Node4&#45;&gt;Node2 -->
<g id="edge3_Node000002_Node000004" class="edge">
<title>Node4&#45;&gt;Node2</title>
<g id="a_edge3_Node000002_Node000004"><a xlink:title=" ">
<path fill="none" stroke="#9a32cd" stroke-dasharray="5,2" d="M110.79,-124.08C105.19,-117.47 98.61,-109.81 92.5,-103 87.09,-96.97 80.84,-90.35 75.94,-85.23"/>
<polygon fill="#9a32cd" stroke="#9a32cd" points="108.13,-126.36 117.25,-131.76 113.49,-121.85 108.13,-126.36"/>
</a>
</g>
<text text-anchor="middle" x="130" y="-106" font-family="Helvetica,sans-Serif" font-size="10.00" fill="grey"> expression</text>
</g>
<!-- Node5 -->
<g id="Node000005" class="node">
<title>Node5</title>
<g id="a_Node000005"><a xlink:title=" ">
<polygon fill="white" stroke="#666666" points="153,-217 96,-217 96,-198 153,-198 153,-217"/>
<text text-anchor="middle" x="124.5" y="-205" font-family="Helvetica,sans-Serif" font-size="10.00">ValuePtr</text>
</a>
</g>
</g>
<!-- Node5&#45;&gt;Node4 -->
<g id="edge4_Node000004_Node000005" class="edge">
<title>Node5&#45;&gt;Node4</title>
<g id="a_edge4_Node000004_Node000005"><a xlink:title=" ">
<path fill="none" stroke="#9a32cd" stroke-dasharray="5,2" d="M124.5,-187.58C124.5,-175.63 124.5,-160.72 124.5,-151.41"/>
<polygon fill="#9a32cd" stroke="#9a32cd" points="121,-187.87 124.5,-197.87 128,-187.87 121,-187.87"/>
</a>
</g>
<text text-anchor="middle" x="134" y="-172" font-family="Helvetica,sans-Serif" font-size="10.00" fill="grey"> val</text>
</g>
<!-- Node6 -->
<g id="Node000006" class="node">
<title>Node6</title>
<g id="a_Node000006"><a xlink:title=" ">
<polygon fill="white" stroke="#666666" points="187.5,-85 149.5,-85 149.5,-66 187.5,-66 187.5,-85"/>
<text text-anchor="middle" x="168.5" y="-73" font-family="Helvetica,sans-Serif" font-size="10.00">bool</text>
</a>
</g>
</g>
<!-- Node6&#45;&gt;Node1 -->
<g id="edge5_Node000001_Node000006" class="edge">
<title>Node6&#45;&gt;Node1</title>
<g id="a_edge5_Node000001_Node000006"><a xlink:title=" ">
<path fill="none" stroke="#9a32cd" stroke-dasharray="5,2" d="M155.17,-57.77C145.38,-45.49 132.48,-29.3 124.6,-19.41"/>
<polygon fill="#9a32cd" stroke="#9a32cd" points="152.65,-60.23 161.62,-65.87 158.13,-55.87 152.65,-60.23"/>
</a>
</g>
<text text-anchor="middle" x="179" y="-40" font-family="Helvetica,sans-Serif" font-size="10.00" fill="grey"> allow_partial</text>
</g>
</g>
</svg>
</svg>

<style type='text/css'>
<![CDATA[
[data-mouse-over-selected='false'] { opacity: 0.7; }
[data-mouse-over-selected='true']  { opacity: 1.0; }
]]>
</style>
<script type="application/ecmascript"><![CDATA[
document.addEventListener('DOMContentLoaded', (event) => {
  highlightEdges();
  highlightAdjacentNodes();
});
]]></script>
</svg>
