<?xml version="1.0" encoding="UTF-8" standalone="no"?>
<!DOCTYPE svg PUBLIC "-//W3C//DTD SVG 1.1//EN"
 "http://www.w3.org/Graphics/SVG/1.1/DTD/svg11.dtd">
<!-- Generated by graphviz version 2.43.0 (0)
 -->
<!-- Title: secure::test::TestRunner::run_all Pages: 1 -->
<svg width="446pt" height="51pt"
 viewBox="0.00 0.00 446.00 50.50" xmlns="http://www.w3.org/2000/svg" xmlns:xlink="http://www.w3.org/1999/xlink">
<g id="graph0" class="graph" transform="scale(1 1) rotate(0) translate(4 46.5)">
<title>secure::test::TestRunner::run_all</title>
<!-- Node1 -->
<g id="Node000001" class="node">
<title>Node1</title>
<g id="a_Node000001"><a xlink:title=" ">
<polygon fill="#999999" stroke="#666666" points="134,-30 0,-30 0,0 134,0 134,-30"/>
<text text-anchor="start" x="8" y="-18" font-family="Helvetica,sans-Serif" font-size="10.00">secure::test::TestRunner</text>
<text text-anchor="middle" x="67" y="-7" font-family="Helvetica,sans-Serif" font-size="10.00">::run_all</text>
</a>
</g>
</g>
<!-- Node2 -->
<g id="Node000002" class="node">
<title>Node2</title>
<g id="a_Node000002"><a xlink:href="../../d2/d78/classsecure_1_1test_1_1TestRunner.html#a4e679cb16b833a442dbca329562002db" target="_top" xlink:title=" ">
<polygon fill="white" stroke="#666666" points="304,-30 170,-30 170,0 304,0 304,-30"/>
<text text-anchor="start" x="178" y="-18" font-family="Helvetica,sans-Serif" font-size="10.00">secure::test::TestRunner</text>
<text text-anchor="middle" x="237" y="-7" font-family="Helvetica,sans-Serif" font-size="10.00">::run_test</text>
</a>
</g>
</g>
<!-- Node1&#45;&gt;Node2 -->
<g id="edge1_Node000001_Node000002" class="edge">
<title>Node1&#45;&gt;Node2</title>
<g id="a_edge1_Node000001_Node000002"><a xlink:title=" ">
<path fill="none" stroke="#63b8ff" d="M134.4,-15C142.68,-15 151.2,-15 159.62,-15"/>
<polygon fill="#63b8ff" stroke="#63b8ff" points="159.81,-18.5 169.81,-15 159.81,-11.5 159.81,-18.5"/>
</a>
</g>
</g>
<!-- Node3 -->
<g id="Node000003" class="node">
<title>Node3</title>
<g id="a_Node000003"><a xlink:href="../../df/dc1/namespacesecure.html#a111c484fbf4d62120d4412ed93bdc686" target="_top" xlink:title=" ">
<polygon fill="white" stroke="#666666" points="438,-24.5 340,-24.5 340,-5.5 438,-5.5 438,-24.5"/>
<text text-anchor="middle" x="389" y="-12.5" font-family="Helvetica,sans-Serif" font-size="10.00">secure::to_string</text>
</a>
</g>
</g>
<!-- Node2&#45;&gt;Node3 -->
<g id="edge2_Node000002_Node000003" class="edge">
<title>Node2&#45;&gt;Node3</title>
<g id="a_edge2_Node000002_Node000003"><a xlink:title=" ">
<path fill="none" stroke="#63b8ff" d="M304.23,-15C312.71,-15 321.34,-15 329.69,-15"/>
<polygon fill="#63b8ff" stroke="#63b8ff" points="329.69,-18.5 339.69,-15 329.69,-11.5 329.69,-18.5"/>
</a>
</g>
</g>
<!-- Node3&#45;&gt;Node3 -->
<g id="edge3_Node000003_Node000003" class="edge">
<title>Node3&#45;&gt;Node3</title>
<g id="a_edge3_Node000003_Node000003"><a xlink:title=" ">
<path fill="none" stroke="#63b8ff" d="M365.57,-24.58C354.18,-33.23 361.98,-42.5 389,-42.5 406.73,-42.5 416.19,-38.51 417.37,-33.32"/>
<polygon fill="#63b8ff" stroke="#63b8ff" points="420.4,-31.56 412.43,-24.58 414.31,-35.01 420.4,-31.56"/>
</a>
</g>
</g>
</g>
</svg>
